<svg viewBox="0 0 52 59" fill="currentColor" xmlns="http://www.w3.org/2000/svg" xmlns:xlink="http://www.w3.org/1999/xlink">
<use xlink:href="#stroke0_2032_262" transform="translate(26.7588 6.82483) scale(0.0185959) rotate(159.586)"/>
<use xlink:href="#stroke0_2032_262" transform="translate(22.139 2.67926) scale(0.019626) rotate(5.97834)"/>
<use xlink:href="#stroke0_2032_262" transform="translate(25.5844 3.74751) scale(0.0159691) rotate(45.7762)"/>
<use xlink:href="#stroke0_2032_262" transform="translate(28.0171 10.1577) scale(0.0144604) rotate(178.395)"/>
<use xlink:href="#stroke0_2032_262" transform="translate(26.3805 11.7712) scale(0.0139371) rotate(-135.256)"/>
<use xlink:href="#stroke0_2032_262" transform="translate(29.1579 11.5594) scale(0.013302) rotate(170.885)"/>
<use xlink:href="#stroke0_2032_262" transform="translate(30.7143 8.5968) scale(0.0189442) rotate(94.7757)"/>
<use xlink:href="#stroke0_2032_262" transform="translate(28.8997 9.38284) scale(0.0136137) rotate(58.4539)"/>
<use xlink:href="#stroke0_2032_262" transform="translate(25.7001 13.6384) scale(0.013676) rotate(-61.0107)"/>
<use xlink:href="#stroke0_2032_262" transform="translate(28.2968 10.92) scale(0.0156114) rotate(32.4122)"/>
<use xlink:href="#stroke0_2032_262" transform="translate(29.1085 19.0397) scale(0.0180173) rotate(-138.282)"/>
<use xlink:href="#stroke0_2032_262" transform="translate(25.3436 15.9741) scale(0.0201222) rotate(-37.6901)"/>
<use xlink:href="#stroke0_2032_262" transform="translate(28.2591 14.5206) scale(0.019235) rotate(21.5977)"/>
<use xlink:href="#stroke0_2032_262" transform="translate(33.4767 20.4654) scale(0.0187636) rotate(142.99)"/>
<use xlink:href="#stroke0_2032_262" transform="translate(31.0561 17.2389) scale(0.0202254) rotate(60.3638)"/>
<use xlink:href="#stroke0_2032_262" transform="translate(32.2548 23.7099) scale(0.0140115) rotate(156.667)"/>
<use xlink:href="#stroke0_2032_262" transform="translate(33.1997 25.31) scale(0.019347) rotate(154.536)"/>
<use xlink:href="#stroke0_2032_262" transform="translate(26.5466 27.8203) scale(0.0187174) rotate(-91.7613)"/>
<use xlink:href="#stroke0_2032_262" transform="translate(31.0978 24.2018) scale(0.0143653) rotate(82.5185)"/>
<use xlink:href="#stroke0_2032_262" transform="translate(29.5379 23.991) scale(0.017984) rotate(50.9945)"/>
<use xlink:href="#stroke0_2032_262" transform="translate(26.5413 32.3242) scale(0.0189838) rotate(-106.44)"/>
<use xlink:href="#stroke0_2032_262" transform="translate(31.823 29.1493) scale(0.0184839) rotate(112.4)"/>
<use xlink:href="#stroke0_2032_262" transform="translate(27.4294 28.8229) scale(0.013164) rotate(33.9214)"/>
<use xlink:href="#stroke0_2032_262" transform="translate(25.8758 36.4302) scale(0.0196061) rotate(-118.945)"/>
<use xlink:href="#stroke0_2032_262" transform="translate(24.1602 31.0558) scale(0.0178063) rotate(1.39554)"/>
<use xlink:href="#stroke0_2032_262" transform="translate(27.1594 38.1349) scale(0.0167885) rotate(-161.946)"/>
<use xlink:href="#stroke0_2032_262" transform="translate(27.7537 33.5564) scale(0.0179499) rotate(89.209)"/>
<use xlink:href="#stroke0_2032_262" transform="translate(26.0295 40.5397) scale(0.0187825) rotate(-167.368)"/>
<use xlink:href="#stroke0_2032_262" transform="translate(23.2851 40.78) scale(0.0130122) rotate(-135.667)"/>
<use xlink:href="#stroke0_2032_262" transform="translate(23.7377 36.2215) scale(0.0138558) rotate(60.8363)"/>
<use xlink:href="#stroke0_2032_262" transform="translate(25.7619 40.6535) scale(0.0185782) rotate(143.126)"/>
<use xlink:href="#stroke0_2032_262" transform="translate(24.6941 40.777) scale(0.0177943) rotate(130.263)"/>
<use xlink:href="#stroke0_2032_262" transform="translate(22.5739 40.249) scale(0.0137365) rotate(103.228)"/>
<use xlink:href="#stroke0_2032_262" transform="translate(17.5029 40.0096) scale(0.0132792) rotate(2.60724)"/>
<use xlink:href="#stroke0_2032_262" transform="translate(15.4149 42.1224) scale(0.0142322) rotate(-38.3143)"/>
<use xlink:href="#stroke0_2032_262" transform="translate(15.6772 40.4101) scale(0.0153466) rotate(10.9088)"/>
<use xlink:href="#stroke0_2032_262" transform="translate(19.6471 44.1255) scale(0.0172496) rotate(139.72)"/>
<use xlink:href="#stroke0_2032_262" transform="translate(12.2909 45.4949) scale(0.0148845) rotate(-76.9026)"/>
<use xlink:href="#stroke0_2032_262" transform="translate(13.8671 41.0674) scale(0.0163476) rotate(41.4719)"/>
<use xlink:href="#stroke0_2032_262" transform="translate(12.3534 42.0815) scale(0.0133161) rotate(32.2406)"/>
<use xlink:href="#stroke0_2032_262" transform="translate(14.5115 45.1695) scale(0.0130017) rotate(132.887)"/>
<use xlink:href="#stroke0_2032_262" transform="translate(12.1279 42.6609) scale(0.0148396) rotate(66.6258)"/>
<use xlink:href="#stroke0_2032_262" transform="translate(13.4158 44.3496) scale(0.0200182) rotate(111.757)"/>
<use xlink:href="#stroke0_2032_262" transform="translate(9.02526 42.9442) scale(0.0149303) rotate(56.6776)"/>
<use xlink:href="#stroke0_2032_262" transform="translate(7.2098 50.0331) scale(0.0197366) rotate(-143.014)"/>
<use xlink:href="#stroke0_2032_262" transform="translate(3.80051 42.3646) scale(0.0193684) rotate(17.6416)"/>
<use xlink:href="#stroke0_2032_262" transform="translate(3.12916 48.475) scale(0.0129762) rotate(-115.562)"/>
<use xlink:href="#stroke1_2032_262" transform="translate(26.362 2.57093) scale(0.0185959) rotate(119.564)"/>
<use xlink:href="#stroke1_2032_262" transform="translate(20.0234 3.06642) scale(0.019626) rotate(-46.9963)"/>
<use xlink:href="#stroke1_2032_262" transform="translate(22.8005 1.08459) scale(0.0159691) rotate(-11.2443)"/>
<use xlink:href="#stroke1_2032_262" transform="translate(29.4835 2.41627) scale(0.0144604) rotate(119.485)"/>
<use xlink:href="#stroke1_2032_262" transform="translate(30.0538 4.59062) scale(0.0139371) rotate(164.665)"/>
<use xlink:href="#stroke1_2032_262" transform="translate(31.2417 2.03434) scale(0.013302) rotate(110.002)"/>
<use xlink:href="#stroke1_2032_262" transform="translate(29.3644 -0.76849) scale(0.0189442) rotate(33.2058)"/>
<use xlink:href="#stroke1_2032_262" transform="translate(29.1761 1.21273) scale(0.0136137) rotate(-3.59985)"/>
<use xlink:href="#stroke1_2032_262" transform="translate(31.4497 6.03451) scale(0.013676) rotate(-123.349)"/>
<use xlink:href="#stroke1_2032_262" transform="translate(30.2394 2.49447) scale(0.0156114) rotate(-30.4086)"/>
<use xlink:href="#stroke1_2032_262" transform="translate(37.8439 5.45821) scale(0.0180173) rotate(158.578)"/>
<use xlink:href="#stroke1_2032_262" transform="translate(33.3774 7.41299) scale(0.0201222) rotate(-100.31)"/>
<use xlink:href="#stroke1_2032_262" transform="translate(33.462 3.88792) scale(0.019235) rotate(-36.3415)"/>
<use xlink:href="#stroke1_2032_262" transform="translate(41.4427 2.87706) scale(0.0187636) rotate(89.3301)"/>
<use xlink:href="#stroke1_2032_262" transform="translate(37.5844 2.8188) scale(0.0202254) rotate(10.0368)"/>
<use xlink:href="#stroke1_2032_262" transform="translate(43.357 6.14544) scale(0.0140115) rotate(108.5)"/>
<use xlink:href="#stroke1_2032_262" transform="translate(45.2104 6.61944) scale(0.019347) rotate(107.926)"/>
<use xlink:href="#stroke1_2032_262" transform="translate(42.3648 13.1882) scale(0.0187174) rotate(-137.091)"/>
<use xlink:href="#stroke1_2032_262" transform="translate(43.025 7.41062) scale(0.0143653) rotate(37.9894)"/>
<use xlink:href="#stroke1_2032_262" transform="translate(41.7907 8.33638) scale(0.017984) rotate(7.05008)"/>
<use xlink:href="#stroke1_2032_262" transform="translate(45.3768 16.4261) scale(0.0189838) rotate(-149.881)"/>
<use xlink:href="#stroke1_2032_262" transform="translate(46.7943 10.3293) scale(0.0184839) rotate(64.2077)"/>
<use xlink:href="#stroke1_2032_262" transform="translate(43.5581 13.5278) scale(0.013164) rotate(-18.3)"/>
<use xlink:href="#stroke1_2032_262" transform="translate(48.8953 19.2327) scale(0.0196061) rotate(-175.252)"/>
<use xlink:href="#stroke1_2032_262" transform="translate(43.5178 17.73) scale(0.0178063) rotate(-56.0333)"/>
<use xlink:href="#stroke1_2032_262" transform="translate(51.0057 19.2733) scale(0.0167885) rotate(144.716)"/>
<use xlink:href="#stroke1_2032_262" transform="translate(47.88 16.0594) scale(0.0179499) rotate(39.5017)"/>
<use xlink:href="#stroke1_2032_262" transform="translate(52.0018 22.1119) scale(0.0187825) rotate(146.169)"/>
<use xlink:href="#stroke1_2032_262" transform="translate(50.1756 24.346) scale(0.0130122) rotate(-179.699)"/>
<use xlink:href="#stroke1_2032_262" transform="translate(47.4024 20.7174) scale(0.0138558) rotate(18.7133)"/>
<use xlink:href="#stroke1_2032_262" transform="translate(51.8164 22.5606) scale(0.0185782) rotate(99.4646)"/>
<use xlink:href="#stroke1_2032_262" transform="translate(50.8813 23.0894) scale(0.0177943) rotate(79.5924)"/>
<use xlink:href="#stroke1_2032_262" transform="translate(48.9275 24.3573) scale(0.0137365) rotate(47.2588)"/>
<use xlink:href="#stroke1_2032_262" transform="translate(45.9492 28.6113) scale(0.0132792) rotate(-57.2807)"/>
<use xlink:href="#stroke1_2032_262" transform="translate(46.8985 31.5877) scale(0.0142322) rotate(-101.635)"/>
<use xlink:href="#stroke1_2032_262" transform="translate(45.5341 30.7569) scale(0.0153466) rotate(-55.5365)"/>
<use xlink:href="#stroke1_2032_262" transform="translate(50.4069 28.5141) scale(0.0172496) rotate(70.4417)"/>
<use xlink:href="#stroke1_2032_262" transform="translate(49.2265 35.8601) scale(0.0148845) rotate(-148.394)"/>
<use xlink:href="#stroke1_2032_262" transform="translate(45.597 32.6575) scale(0.0163476) rotate(-24.4825)"/>
<use xlink:href="#stroke1_2032_262" transform="translate(45.9384 34.158) scale(0.0133161) rotate(-27.4148)"/>
<use xlink:href="#stroke1_2032_262" transform="translate(49.8619 33.9923) scale(0.0130017) rotate(78.8539)"/>
<use xlink:href="#stroke1_2032_262" transform="translate(46.5422 34.3615) scale(0.0148396) rotate(15.6545)"/>
<use xlink:href="#stroke1_2032_262" transform="translate(48.5974 34.4027) scale(0.0200182) rotate(59.7012)"/>
<use xlink:href="#stroke1_2032_262" transform="translate(44.7242 37.0808) scale(0.0149303) rotate(2.57887)"/>
<use xlink:href="#stroke1_2032_262" transform="translate(49.4382 42.6679) scale(0.0197366) rotate(162.131)"/>
<use xlink:href="#stroke1_2032_262" transform="translate(41.203 41.087) scale(0.0193684) rotate(-37.8242)"/>
<use xlink:href="#stroke1_2032_262" transform="translate(45.9009 45.0852) scale(0.0129762) rotate(-171.98)"/>
<use xlink:href="#stroke1_2032_262" transform="translate(47.6647 44.5747) scale(0.0192356) rotate(141.407)"/>
<use xlink:href="#stroke1_2032_262" transform="translate(46.1071 45.9044) scale(0.0153423) rotate(147.845)"/>
<use xlink:href="#stroke1_2032_262" transform="translate(38.5902 44.2889) scale(0.0201239) rotate(-22.3683)"/>
<use xlink:href="#stroke1_2032_262" transform="translate(37.6947 47.8397) scale(0.0181707) rotate(-57.6052)"/>
<use xlink:href="#stroke1_2032_262" transform="translate(40.3991 52.0641) scale(0.018392) rotate(-137.906)"/>
<use xlink:href="#stroke1_2032_262" transform="translate(39.8676 53.1401) scale(0.018937) rotate(-145.159)"/>
<use xlink:href="#stroke1_2032_262" transform="translate(36.4219 47.0227) scale(0.0180419) rotate(9.9891)"/>
<use xlink:href="#stroke1_2032_262" transform="translate(38.9587 54.7538) scale(0.019765) rotate(-163.897)"/>
<use xlink:href="#stroke1_2032_262" transform="translate(37.9408 49.4735) scale(0.0143332) rotate(78.6412)"/>
<use xlink:href="#stroke1_2032_262" transform="translate(39.124 52.6597) scale(0.0197802) rotate(133.442)"/>
<use xlink:href="#stroke1_2032_262" transform="translate(31.3716 54.1896) scale(0.013528) rotate(-70.8365)"/>
<use xlink:href="#stroke1_2032_262" transform="translate(32.5392 56.2247) scale(0.0130676) rotate(-127.869)"/>
<use xlink:href="#stroke1_2032_262" transform="translate(33.0531 50.2615) scale(0.019153) rotate(58.4653)"/>
<use xlink:href="#stroke1_2032_262" transform="translate(29.968 58.4172) scale(0.0194653) rotate(-131.179)"/>
<use xlink:href="#stroke1_2032_262" transform="translate(32.2993 56.181) scale(0.0169037) rotate(155.824)"/>
<use xlink:href="#stroke1_2032_262" transform="translate(27.6202 51.7971) scale(0.0154065) rotate(36.0038)"/>
<use xlink:href="#stroke1_2032_262" transform="translate(25.811 51.8947) scale(0.0163188) rotate(25.6661)"/>
<use xlink:href="#stroke1_2032_262" transform="translate(23.2878 51.9375) scale(0.0192292) rotate(9.5193)"/>
<use xlink:href="#stroke1_2032_262" transform="translate(22.4602 52.2355) scale(0.0173572) rotate(15.9864)"/>
<use xlink:href="#stroke1_2032_262" transform="translate(20.0191 53.6507) scale(0.0162329) rotate(-12.6099)"/>
<use xlink:href="#stroke1_2032_262" transform="translate(22.6607 59.047) scale(0.0169309) rotate(-158.612)"/>
<use xlink:href="#stroke1_2032_262" transform="translate(22.9103 57.1756) scale(0.0140633) rotate(156.8)"/>
<use xlink:href="#stroke1_2032_262" transform="translate(21.8053 58.5729) scale(0.0181887) rotate(174.467)"/>
<use xlink:href="#stroke1_2032_262" transform="translate(19.8831 52.8986) scale(0.0182124) rotate(77.2738)"/>
<use xlink:href="#stroke1_2032_262" transform="translate(12.2496 56.7075) scale(0.0201402) rotate(-63.4453)"/>
<use xlink:href="#stroke1_2032_262" transform="translate(17.7837 54.641) scale(0.0136281) rotate(119.371)"/>
<use xlink:href="#stroke1_2032_262" transform="translate(16.3587 56.7213) scale(0.0146294) rotate(171.749)"/>
<use xlink:href="#stroke1_2032_262" transform="translate(12.4542 56.8395) scale(0.0130066) rotate(-123.586)"/>
<use xlink:href="#stroke1_2032_262" transform="translate(14.6437 55.2051) scale(0.0135276) rotate(164.121)"/>
<use xlink:href="#stroke1_2032_262" transform="translate(9.54686 49.9042) scale(0.0174176) rotate(11.1793)"/>
<use xlink:href="#stroke1_2032_262" transform="translate(9.96016 54.9206) scale(0.0130797) rotate(-128.199)"/>
<use xlink:href="#stroke1_2032_262" transform="translate(7.24247 52.8531) scale(0.0132673) rotate(-75.3685)"/>
<use xlink:href="#stroke1_2032_262" transform="translate(5.53023 49.0923) scale(0.0179453) rotate(-20.3007)"/>
<use xlink:href="#stroke1_2032_262" transform="translate(6.09289 52.7711) scale(0.0158138) rotate(-106.828)"/>
<use xlink:href="#stroke1_2032_262" transform="translate(6.15375 52.0705) scale(0.0144347) rotate(-122.641)"/>
<use xlink:href="#stroke1_2032_262" transform="translate(4.19207 46.6354) scale(0.0133499) rotate(-8.91793)"/>
<use xlink:href="#stroke1_2032_262" transform="translate(9.05503 47.3852) scale(0.0165453) rotate(130.179)"/>
<use xlink:href="#stroke1_2032_262" transform="translate(6.79351 44.2884) scale(0.0138383) rotate(80.4394)"/>
<use xlink:href="#stroke1_2032_262" transform="translate(1.87949 44.6215) scale(0.0132423) rotate(-26.1473)"/>
<use xlink:href="#stroke1_2032_262" transform="translate(3.80824 47.6743) scale(0.0137391) rotate(-139.335)"/>
<use xlink:href="#stroke1_2032_262" transform="translate(5.91559 43.079) scale(0.0144332) rotate(113.083)"/>
<use xlink:href="#stroke1_2032_262" transform="translate(6.35209 41.9313) scale(0.0193684) rotate(107.437)"/>
<defs>
<g id="stroke0_2032_262" data-figma-scatter-ref="stroke0_2032_262_ref" data-figma-scatter="f0.28_w0_aj180_sj0.25_r0_s0_sw5">
<path d="M103.731 283.547C110.352 281.363 112.807 281.348 116.121 283.468C130.109 292.418 124.85 308.718 107.972 308.727C90.3768 308.737 87.0606 289.046 103.731 283.547ZM139.837 35.4146C140.937 35.1787 142.512 35.114 143.337 35.271C144.162 35.4281 146.516 35.8391 148.567 36.1851C155.802 37.4051 160.179 46.6969 156.734 53.5249C152.924 61.0769 144.715 67.5811 140.859 66.1021C135.872 64.1881 137.625 69.8792 144.066 76.5152C148.306 80.8841 150.337 81.2685 150.337 77.7066C150.337 76.6574 151.622 74.3218 153.193 72.5161C154.823 70.6412 156.597 66.9201 157.324 63.8501C158.925 57.0892 160.788 55.2289 167.369 53.8169C177.32 51.6829 185.581 56.9263 183.752 64.2153C183.293 66.0423 183.901 67.6656 186.09 70.4585C196.859 84.1975 193.875 104.273 180.596 107.418C177.049 108.258 176.832 108.532 176.773 112.27C176.739 114.448 176.365 116.987 175.943 117.912C175.255 119.417 175.946 119.564 182.506 119.31C190.415 119.003 192.674 119.705 195.953 123.487C199.054 127.064 201.598 126.114 202.609 121.002C203.503 116.483 209.096 110.731 212.596 110.731C214.841 110.731 215.934 108.156 214.449 106.367C206.1 96.3056 222.234 73.6632 235.605 76.6792C241.572 78.0252 246.302 83.6302 246.367 89.4312C246.384 90.9712 247.505 94.4811 248.858 97.231C255.362 110.453 243.304 126.225 232.777 118.263C229.924 116.105 229.837 116.226 229.837 122.341C229.837 128.93 225.932 133.292 219.049 134.393C216.068 134.87 214.933 135.67 213.775 138.116C212.964 139.829 211.55 142.415 210.63 143.863C208.984 146.456 209.02 146.565 213.147 151.254C215.451 153.871 217.337 156.555 217.337 157.218C217.337 157.882 218.074 159.901 218.974 161.706C222.148 168.067 221.073 181.731 217.4 181.731C217.052 181.731 215.97 183.081 214.995 184.731C214.02 186.381 212.573 187.731 211.779 187.731C209.595 187.731 210.044 189.817 212.863 192.76C216.384 196.435 217.425 204.867 214.728 207.858C209.503 213.649 203.05 218.01 198.064 219.122C193.944 220.041 192.83 220.705 192.804 222.259C192.669 230.389 188.242 235.387 179.682 237.077C172.845 238.427 172.072 240.31 177.577 242.203C190.358 246.597 192.892 257.693 182.442 263.506C176.521 266.799 172.426 266.758 167.515 263.354C163.894 260.845 163.161 260.686 159.679 261.653C153.737 263.303 147.363 262.934 141.337 260.593C135.874 258.47 130.724 257.068 124.689 256.061C118.715 255.064 115.151 249.943 114.592 241.551C114.184 235.417 113.671 233.745 111.425 231.231C109.951 229.581 107.986 226.544 107.058 224.481C105.42 220.844 105.211 220.731 100.164 220.731C93.7935 220.731 89.0798 217.922 86.2168 212.42C83.0468 206.327 78.9427 207.336 78.8477 214.231C78.8097 216.981 78.4233 220.817 77.9883 222.755C77.2354 226.113 77.3507 226.324 80.4366 227.255C90.5004 230.29 90.3981 247.946 80.2881 252.934C55.9904 264.92 26.2411 240.473 47.875 226.298C49.556 225.196 50.1805 223.494 50.6895 218.626C51.0495 215.185 52.1298 211.262 53.0908 209.91C54.0507 208.557 55.2736 206.856 55.8086 206.127C56.5016 205.184 56.0161 204.003 54.1221 202.017C50.6273 198.355 49.3112 194.657 49.9981 190.428C50.3281 188.392 50.1033 186.705 49.4463 186.299C48.8364 185.922 48.337 184.345 48.3369 182.794C48.3369 181.244 47.6012 179.366 46.7032 178.621C43.9996 176.376 34.3369 162.856 34.3369 161.317C34.3368 160.529 32.7627 157.822 30.8389 155.302C28.915 152.781 27.3998 150.384 27.4727 149.975C28.4457 144.478 24.6467 141.425 20.4727 144.348C18.2547 145.902 11.2222 145.776 6.86624 144.104C-3.23648 140.227 -1.78745 115.126 8.56839 114.62C14.8594 114.313 23.3369 117.551 23.3369 120.261C23.3372 122.018 26.1103 124.731 27.9073 124.731C28.6933 124.731 29.3369 124.041 29.3369 123.198C29.3372 109.814 50.1851 94.3087 69.8369 93.0767C82.9305 92.2547 88.2617 93.4969 97.1895 99.4468C101.45 102.287 108.337 96.8837 108.337 90.7007C108.337 88.6598 109.172 86.4706 110.483 85.0747C112.734 82.6789 111.804 79.7313 108.796 79.731C106.403 79.731 103.556 73.5422 104.077 69.4702C105.046 61.8843 117.633 57.7673 123.289 63.1861C125.639 65.4379 126.708 65.8083 129.245 65.2515C133.054 64.4145 133.128 63.4739 129.587 60.895C121.36 54.902 128.195 37.9086 139.837 35.4146ZM227.337 203.429C239.094 199.654 252.722 207.291 252.722 217.653C252.722 228.495 231.921 239.44 223.927 232.806C221.665 230.929 220.403 232.363 221.012 236.118C222.097 242.802 213.511 254.731 207.616 254.731C194.246 254.731 188.8 246.232 194.457 234.198C198.202 226.231 204.453 223.784 213.238 226.847C217.536 228.345 217.88 227.687 215.921 221.697C213.052 212.925 216.89 206.783 227.337 203.429ZM179.7 192.695C179.049 192.044 178.051 192.413 176.774 193.779C168.37 202.768 165.063 203.713 156.506 199.571C149.746 196.298 146.45 201.459 151.961 206.689C154.209 208.822 154.482 209.744 154.038 213.682C153.54 218.098 153.664 218.344 158.682 222.967C163.836 227.716 163.837 227.716 164.351 222.867C164.987 216.872 169.522 209.969 174.077 208.066C177.094 206.805 177.337 206.359 177.337 202.046C177.337 199.092 177.95 196.711 179.013 195.536C180.117 194.315 180.352 193.347 179.7 192.695ZM13.7354 183.697C21.2304 180.362 25.9355 181.225 32.1055 187.066C40.5644 195.074 37.0287 205.612 24.6309 209.343C9.40689 213.925 -0.704596 190.124 13.7354 183.697ZM252.956 148.251C262.129 145.732 267.81 147.203 270.983 152.921C277.397 164.478 257.352 180.919 247.179 172.445C237.093 164.044 240.016 151.805 252.956 148.251ZM175.822 162.709C174.842 161.123 172.482 161.589 171.417 163.579C170.283 165.699 171.384 170.913 173.086 171.481C174.366 171.905 176.761 164.229 175.822 162.709ZM150.152 111.481C150.492 108.526 149.534 108.177 145.513 109.79C142.108 111.155 143.035 114.231 146.851 114.231C149.365 114.231 149.886 113.796 150.152 111.481ZM156.837 98.731C156.012 98.731 155.337 99.406 155.337 100.231C155.337 101.056 156.012 101.731 156.837 101.731C157.662 101.731 158.337 101.056 158.337 100.231C158.337 99.4061 157.662 98.7312 156.837 98.731ZM131.337 85.6382C131.337 82.8002 129.491 81.4004 127.429 82.6743C126.501 83.2473 126.685 84.2905 128.185 86.9605C129.273 88.9003 130.316 91.46 130.5 92.6489C130.685 93.8379 131.287 94.905 131.837 95.021C133.25 95.317 133.729 90.7224 132.422 89.4155C131.825 88.8185 131.337 87.1191 131.337 85.6382ZM79.8369 36.9214C89.8819 31.2487 102.893 46.8492 95.6582 55.8921C92.2024 60.211 91.2042 63.981 91.8701 70.1997C92.5322 76.3837 92.4821 76.5638 89.0371 80.3628C76.0391 94.6997 55.1533 78.5005 64.8242 61.5825C66.3391 58.9327 67.3172 55.6452 67.3242 53.1753C67.3402 47.7053 72.4159 41.1124 79.8369 36.9214ZM120.896 78.731C120.653 78.731 120.177 79.1811 119.837 79.731C119.497 80.2809 119.695 80.7309 120.277 80.731C120.859 80.731 121.337 80.281 121.337 79.731C121.337 79.181 121.139 78.731 120.896 78.731ZM205.485 39.4898C219.631 37.0418 227.598 50.9151 220.597 65.8081C213.393 81.13 190.339 77.7861 190.091 61.3823C189.98 54.0764 199.509 40.5238 205.485 39.4898ZM51.8369 14.5542C64.4449 5.86451 75.68 19.3671 68.6241 34.731C62.385 48.3167 41.3372 43.775 41.3369 28.8423C41.3369 26.0333 47.6529 17.4382 51.8369 14.5542ZM108.212 2.17043C121.43 -6.81137 141.546 14.0924 133.237 28.1743C132.084 30.1297 130.819 31.7302 130.427 31.731C130.035 31.731 128.813 32.5703 127.713 33.5962C119.456 41.2872 107.786 35.7761 103.367 22.0991C100.152 12.1461 101.463 6.75643 108.212 2.17043Z" fill="currentColor"/>
</g>
<path id="stroke0_2032_262_ref" d="M23.3854 5.01746C24.8701 5.89985 27.249 9.45615 28.5995 13.467C30.4571 18.9842 29.6459 24.5905 28.6084 29.0693C27.6921 33.0252 24.8879 36.1953 22.3525 39.4708C19.8997 42.6395 15.3542 43.9318 11.7723 45.1217C10.8735 45.4203 9.98806 45.7144 8.64653 45.8659C7.30501 46.0175 5.53419 46.0175 3.70972 46.0175"/>
<g id="stroke1_2032_262" data-figma-scatter-ref="stroke1_2032_262_ref" data-figma-scatter="f0.28_w0_aj180_sj0.25_r0_s0_sw5">
<path d="M103.731 283.547C110.352 281.363 112.807 281.348 116.121 283.468C130.109 292.418 124.85 308.718 107.972 308.727C90.3768 308.737 87.0606 289.046 103.731 283.547ZM139.837 35.4146C140.937 35.1787 142.512 35.114 143.337 35.271C144.162 35.4281 146.516 35.8391 148.567 36.1851C155.802 37.4051 160.179 46.6969 156.734 53.5249C152.924 61.0769 144.715 67.5811 140.859 66.1021C135.872 64.1881 137.625 69.8792 144.066 76.5152C148.306 80.8841 150.337 81.2685 150.337 77.7066C150.337 76.6574 151.622 74.3218 153.193 72.5161C154.823 70.6412 156.597 66.9201 157.324 63.8501C158.925 57.0892 160.788 55.2289 167.369 53.8169C177.32 51.6829 185.581 56.9263 183.752 64.2153C183.293 66.0423 183.901 67.6656 186.09 70.4585C196.859 84.1975 193.875 104.273 180.596 107.418C177.049 108.258 176.832 108.532 176.773 112.27C176.739 114.448 176.365 116.987 175.943 117.912C175.255 119.417 175.946 119.564 182.506 119.31C190.415 119.003 192.674 119.705 195.953 123.487C199.054 127.064 201.598 126.114 202.609 121.002C203.503 116.483 209.096 110.731 212.596 110.731C214.841 110.731 215.934 108.156 214.449 106.367C206.1 96.3056 222.234 73.6632 235.605 76.6792C241.572 78.0252 246.302 83.6302 246.367 89.4312C246.384 90.9712 247.505 94.4811 248.858 97.231C255.362 110.453 243.304 126.225 232.777 118.263C229.924 116.105 229.837 116.226 229.837 122.341C229.837 128.93 225.932 133.292 219.049 134.393C216.068 134.87 214.933 135.67 213.775 138.116C212.964 139.829 211.55 142.415 210.63 143.863C208.984 146.456 209.02 146.565 213.147 151.254C215.451 153.871 217.337 156.555 217.337 157.218C217.337 157.882 218.074 159.901 218.974 161.706C222.148 168.067 221.073 181.731 217.4 181.731C217.052 181.731 215.97 183.081 214.995 184.731C214.02 186.381 212.573 187.731 211.779 187.731C209.595 187.731 210.044 189.817 212.863 192.76C216.384 196.435 217.425 204.867 214.728 207.858C209.503 213.649 203.05 218.01 198.064 219.122C193.944 220.041 192.83 220.705 192.804 222.259C192.669 230.389 188.242 235.387 179.682 237.077C172.845 238.427 172.072 240.31 177.577 242.203C190.358 246.597 192.892 257.693 182.442 263.506C176.521 266.799 172.426 266.758 167.515 263.354C163.894 260.845 163.161 260.686 159.679 261.653C153.737 263.303 147.363 262.934 141.337 260.593C135.874 258.47 130.724 257.068 124.689 256.061C118.715 255.064 115.151 249.943 114.592 241.551C114.184 235.417 113.671 233.745 111.425 231.231C109.951 229.581 107.986 226.544 107.058 224.481C105.42 220.844 105.211 220.731 100.164 220.731C93.7935 220.731 89.0798 217.922 86.2168 212.42C83.0468 206.327 78.9427 207.336 78.8477 214.231C78.8097 216.981 78.4233 220.817 77.9883 222.755C77.2354 226.113 77.3507 226.324 80.4366 227.255C90.5004 230.29 90.3981 247.946 80.2881 252.934C55.9904 264.92 26.2411 240.473 47.875 226.298C49.556 225.196 50.1805 223.494 50.6895 218.626C51.0495 215.185 52.1298 211.262 53.0908 209.91C54.0507 208.557 55.2736 206.856 55.8086 206.127C56.5016 205.184 56.0161 204.003 54.1221 202.017C50.6273 198.355 49.3112 194.657 49.9981 190.428C50.3281 188.392 50.1033 186.705 49.4463 186.299C48.8364 185.922 48.337 184.345 48.3369 182.794C48.3369 181.244 47.6012 179.366 46.7032 178.621C43.9996 176.376 34.3369 162.856 34.3369 161.317C34.3368 160.529 32.7627 157.822 30.8389 155.302C28.915 152.781 27.3998 150.384 27.4727 149.975C28.4457 144.478 24.6467 141.425 20.4727 144.348C18.2547 145.902 11.2222 145.776 6.86624 144.104C-3.23648 140.227 -1.78745 115.126 8.56839 114.62C14.8594 114.313 23.3369 117.551 23.3369 120.261C23.3372 122.018 26.1103 124.731 27.9073 124.731C28.6933 124.731 29.3369 124.041 29.3369 123.198C29.3372 109.814 50.1851 94.3087 69.8369 93.0767C82.9305 92.2547 88.2617 93.4969 97.1895 99.4468C101.45 102.287 108.337 96.8837 108.337 90.7007C108.337 88.6598 109.172 86.4706 110.483 85.0747C112.734 82.6789 111.804 79.7313 108.796 79.731C106.403 79.731 103.556 73.5422 104.077 69.4702C105.046 61.8843 117.633 57.7673 123.289 63.1861C125.639 65.4379 126.708 65.8083 129.245 65.2515C133.054 64.4145 133.128 63.4739 129.587 60.895C121.36 54.902 128.195 37.9086 139.837 35.4146ZM227.337 203.429C239.094 199.654 252.722 207.291 252.722 217.653C252.722 228.495 231.921 239.44 223.927 232.806C221.665 230.929 220.403 232.363 221.012 236.118C222.097 242.802 213.511 254.731 207.616 254.731C194.246 254.731 188.8 246.232 194.457 234.198C198.202 226.231 204.453 223.784 213.238 226.847C217.536 228.345 217.88 227.687 215.921 221.697C213.052 212.925 216.89 206.783 227.337 203.429ZM179.7 192.695C179.049 192.044 178.051 192.413 176.774 193.779C168.37 202.768 165.063 203.713 156.506 199.571C149.746 196.298 146.45 201.459 151.961 206.689C154.209 208.822 154.482 209.744 154.038 213.682C153.54 218.098 153.664 218.344 158.682 222.967C163.836 227.716 163.837 227.716 164.351 222.867C164.987 216.872 169.522 209.969 174.077 208.066C177.094 206.805 177.337 206.359 177.337 202.046C177.337 199.092 177.95 196.711 179.013 195.536C180.117 194.315 180.352 193.347 179.7 192.695ZM13.7354 183.697C21.2304 180.362 25.9355 181.225 32.1055 187.066C40.5644 195.074 37.0287 205.612 24.6309 209.343C9.40689 213.925 -0.704596 190.124 13.7354 183.697ZM252.956 148.251C262.129 145.732 267.81 147.203 270.983 152.921C277.397 164.478 257.352 180.919 247.179 172.445C237.093 164.044 240.016 151.805 252.956 148.251ZM175.822 162.709C174.842 161.123 172.482 161.589 171.417 163.579C170.283 165.699 171.384 170.913 173.086 171.481C174.366 171.905 176.761 164.229 175.822 162.709ZM150.152 111.481C150.492 108.526 149.534 108.177 145.513 109.79C142.108 111.155 143.035 114.231 146.851 114.231C149.365 114.231 149.886 113.796 150.152 111.481ZM156.837 98.731C156.012 98.731 155.337 99.406 155.337 100.231C155.337 101.056 156.012 101.731 156.837 101.731C157.662 101.731 158.337 101.056 158.337 100.231C158.337 99.4061 157.662 98.7312 156.837 98.731ZM131.337 85.6382C131.337 82.8002 129.491 81.4004 127.429 82.6743C126.501 83.2473 126.685 84.2905 128.185 86.9605C129.273 88.9003 130.316 91.46 130.5 92.6489C130.685 93.8379 131.287 94.905 131.837 95.021C133.25 95.317 133.729 90.7224 132.422 89.4155C131.825 88.8185 131.337 87.1191 131.337 85.6382ZM79.8369 36.9214C89.8819 31.2487 102.893 46.8492 95.6582 55.8921C92.2024 60.211 91.2042 63.981 91.8701 70.1997C92.5322 76.3837 92.4821 76.5638 89.0371 80.3628C76.0391 94.6997 55.1533 78.5005 64.8242 61.5825C66.3391 58.9327 67.3172 55.6452 67.3242 53.1753C67.3402 47.7053 72.4159 41.1124 79.8369 36.9214ZM120.896 78.731C120.653 78.731 120.177 79.1811 119.837 79.731C119.497 80.2809 119.695 80.7309 120.277 80.731C120.859 80.731 121.337 80.281 121.337 79.731C121.337 79.181 121.139 78.731 120.896 78.731ZM205.485 39.4898C219.631 37.0418 227.598 50.9151 220.597 65.8081C213.393 81.13 190.339 77.7861 190.091 61.3823C189.98 54.0764 199.509 40.5238 205.485 39.4898ZM51.8369 14.5542C64.4449 5.86451 75.68 19.3671 68.6241 34.731C62.385 48.3167 41.3372 43.775 41.3369 28.8423C41.3369 26.0333 47.6529 17.4382 51.8369 14.5542ZM108.212 2.17043C121.43 -6.81137 141.546 14.0924 133.237 28.1743C132.084 30.1297 130.819 31.7302 130.427 31.731C130.035 31.731 128.813 32.5703 127.713 33.5962C119.456 41.2872 107.786 35.7761 103.367 22.0991C100.152 12.1461 101.463 6.75643 108.212 2.17043Z" fill="currentColor"/>
</g>
<path id="stroke1_2032_262_ref" d="M22.6163 3.35622C24.417 3.06146 31.0133 2.46302 36.1754 4.2405C41.6373 6.12119 44.9298 13.1636 46.8888 16.7409C48.9588 20.5209 48.5492 25.6685 48.7075 32.9526C48.8061 37.489 45.5451 40.853 43.4368 44.4303C41.1599 48.2937 37.1119 51.5715 33.488 53.3713C30.0757 55.066 25.6566 55.1621 20.5261 55.9035C14.5294 56.77 10.8714 52.5004 7.39682 49.6645C6.63675 48.9186 6.03955 48.0344 5.4333 47.1367C4.82706 46.239 4.22986 45.3548 2.70972 43.5505"/>
</defs>
</svg>
