<svg viewBox="0 0 65 60" fill="currentColor" xmlns="http://www.w3.org/2000/svg" xmlns:xlink="http://www.w3.org/1999/xlink">
<use xlink:href="#stroke0_2032_263" transform="translate(31.0374 16.9918) scale(0.0185959) rotate(-40.5468)"/>
<use xlink:href="#stroke0_2032_263" transform="translate(37.3397 18.1562) scale(0.019626) rotate(143.06)"/>
<use xlink:href="#stroke0_2032_263" transform="translate(34.4975 19.4465) scale(0.0159691) rotate(172.703)"/>
<use xlink:href="#stroke0_2032_263" transform="translate(27.9648 17.9437) scale(0.0144604) rotate(-61.2297)"/>
<use xlink:href="#stroke0_2032_263" transform="translate(27.2615 16.003) scale(0.0139371) rotate(-20.355)"/>
<use xlink:href="#stroke0_2032_263" transform="translate(26.4035 18.873) scale(0.013302) rotate(-79.3355)"/>
<use xlink:href="#stroke0_2032_263" transform="translate(29.079 21.2591) scale(0.0189442) rotate(-161.778)"/>
<use xlink:href="#stroke0_2032_263" transform="translate(28.9114 19.0712) scale(0.0136137) rotate(154.68)"/>
<use xlink:href="#stroke0_2032_263" transform="translate(24.695 15.5508) scale(0.013676) rotate(27.9489)"/>
<use xlink:href="#stroke0_2032_263" transform="translate(27.3439 17.6286) scale(0.0156114) rotate(111.068)"/>
<use xlink:href="#stroke0_2032_263" transform="translate(19.9225 21.0547) scale(0.0180173) rotate(-74.1407)"/>
<use xlink:href="#stroke0_2032_263" transform="translate(20.1889 16.8652) scale(0.0201222) rotate(11.8892)"/>
<use xlink:href="#stroke0_2032_263" transform="translate(22.4378 17.8834) scale(0.019235) rotate(57.077)"/>
<use xlink:href="#stroke0_2032_263" transform="translate(23.8677 25.2547) scale(0.0187636) rotate(167.205)"/>
<use xlink:href="#stroke0_2032_263" transform="translate(22.5894 20.957) scale(0.0202254) rotate(75.624)"/>
<use xlink:href="#stroke0_2032_263" transform="translate(22.2972 27.293) scale(0.0140115) rotate(165.868)"/>
<use xlink:href="#stroke0_2032_263" transform="translate(23.188 28.7561) scale(0.019347) rotate(159.082)"/>
<use xlink:href="#stroke0_2032_263" transform="translate(16.89 31.2055) scale(0.0187174) rotate(-96.5745)"/>
<use xlink:href="#stroke0_2032_263" transform="translate(20.7961 26.9571) scale(0.0143653) rotate(67.8667)"/>
<use xlink:href="#stroke0_2032_263" transform="translate(18.7019 27.2476) scale(0.017984) rotate(26.2985)"/>
<use xlink:href="#stroke0_2032_263" transform="translate(20.4359 36.0495) scale(0.0189838) rotate(-143.372)"/>
<use xlink:href="#stroke0_2032_263" transform="translate(21.7852 29.704) scale(0.0184839) rotate(55.9604)"/>
<use xlink:href="#stroke0_2032_263" transform="translate(19.0047 33.7043) scale(0.013164) rotate(-36.7086)"/>
<use xlink:href="#stroke0_2032_263" transform="translate(26.0286 37.2014) scale(0.0196061) rotate(162.915)"/>
<use xlink:href="#stroke0_2032_263" transform="translate(20.7388 38.1171) scale(0.0178063) rotate(-84.4159)"/>
<use xlink:href="#stroke0_2032_263" transform="translate(27.9191 35.2373) scale(0.0167885) rotate(106.029)"/>
<use xlink:href="#stroke0_2032_263" transform="translate(23.1191 35.0048) scale(0.0179499) rotate(-8.20686)"/>
<use xlink:href="#stroke0_2032_263" transform="translate(30.0943 35.5083) scale(0.0187825) rotate(90.4387)"/>
<use xlink:href="#stroke0_2032_263" transform="translate(30.8945 37.9524) scale(0.0130122) rotate(118.779)"/>
<use xlink:href="#stroke0_2032_263" transform="translate(26.4048 39.0501) scale(0.0138558) rotate(-52.3662)"/>
<use xlink:href="#stroke0_2032_263" transform="translate(29.1366 35.5286) scale(0.0185782) rotate(21.1544)"/>
<use xlink:href="#stroke0_2032_263" transform="translate(29.2173 36.7223) scale(0.0177943) rotate(-4.24706)"/>
<use xlink:href="#stroke0_2032_263" transform="translate(30.2387 38.9413) scale(0.0137365) rotate(-40.2975)"/>
<use xlink:href="#stroke0_2032_263" transform="translate(34.493 42.0557) scale(0.0132792) rotate(-147.594)"/>
<use xlink:href="#stroke0_2032_263" transform="translate(37.5404 40.9574) scale(0.0142322) rotate(165.446)"/>
<use xlink:href="#stroke0_2032_263" transform="translate(36.9264 42.3059) scale(0.0153466) rotate(-151.206)"/>
<use xlink:href="#stroke0_2032_263" transform="translate(34.1351 37.8285) scale(0.0172496) rotate(-28.4214)"/>
<use xlink:href="#stroke0_2032_263" transform="translate(41.502 37.6461) scale(0.0148845) rotate(109.147)"/>
<use xlink:href="#stroke0_2032_263" transform="translate(40.0826 41.8206) scale(0.0163476) rotate(-143.302)"/>
<use xlink:href="#stroke0_2032_263" transform="translate(42.384 40.0002) scale(0.0133161) rotate(-175.883)"/>
<use xlink:href="#stroke0_2032_263" transform="translate(39.2823 38.7537) scale(0.0130017) rotate(-89.2225)"/>
<use xlink:href="#stroke0_2032_263" transform="translate(43.1718 38.7542) scale(0.0148396) rotate(-166.214)"/>
<use xlink:href="#stroke0_2032_263" transform="translate(41.881 38.8901) scale(0.0200182) rotate(-134.976)"/>
<use xlink:href="#stroke0_2032_263" transform="translate(45.1095 34.8346) scale(0.0149303) rotate(157.879)"/>
<use xlink:href="#stroke0_2032_263" transform="translate(38.3846 32.2194) scale(0.0197366) rotate(-49.6191)"/>
<use xlink:href="#stroke0_2032_263" transform="translate(45.9985 28.894) scale(0.0193684) rotate(105.16)"/>
<use xlink:href="#stroke0_2032_263" transform="translate(39.7728 28.6448) scale(0.0129762) rotate(-31.5485)"/>
<use xlink:href="#stroke0_2032_263" transform="translate(38.7617 30.228) scale(0.0192356) rotate(-79.2362)"/>
<use xlink:href="#stroke0_2032_263" transform="translate(39.146 28.3941) scale(0.0153423) rotate(-76.5732)"/>
<use xlink:href="#stroke0_2032_263" transform="translate(45.3626 23.8103) scale(0.0201239) rotate(105.845)"/>
<use xlink:href="#stroke0_2032_263" transform="translate(42.5649 20.7224) scale(0.0181707) rotate(62.8433)"/>
<use xlink:href="#stroke0_2032_263" transform="translate(37.336 21.2271) scale(0.018392) rotate(-22.5642)"/>
<use xlink:href="#stroke0_2032_263" transform="translate(36.3799 20.799) scale(0.018937) rotate(-37.1665)"/>
<use xlink:href="#stroke0_2032_263" transform="translate(42.9652 18.8685) scale(0.0180419) rotate(108.353)"/>
<use xlink:href="#stroke0_2032_263" transform="translate(35.1588 21.1254) scale(0.019765) rotate(-77.657)"/>
<use xlink:href="#stroke0_2032_263" transform="translate(40.5476 19.3011) scale(0.0143332) rotate(152.731)"/>
<use xlink:href="#stroke0_2032_263" transform="translate(39.0432 21.0003) scale(0.0197802) rotate(-175.62)"/>
<use xlink:href="#stroke0_2032_263" transform="translate(32.8559 16.1859) scale(0.013528) rotate(-24.352)"/>
<use xlink:href="#stroke0_2032_263" transform="translate(32.2836 18.6242) scale(0.0130676) rotate(-85.5344)"/>
<use xlink:href="#stroke0_2032_263" transform="translate(36.8366 14.8744) scale(0.019153) rotate(105.756)"/>
<use xlink:href="#stroke1_2032_263" transform="translate(29.6211 6.18231) scale(0.0185959) rotate(-141.14)"/>
<use xlink:href="#stroke1_2032_263" transform="translate(29.8489 -0.206079) scale(0.019626) rotate(46.7588)"/>
<use xlink:href="#stroke1_2032_263" transform="translate(31.5354 2.57032) scale(0.0159691) rotate(79.1129)"/>
<use xlink:href="#stroke1_2032_263" transform="translate(30.3223 9.21326) scale(0.0144604) rotate(-152.794)"/>
<use xlink:href="#stroke1_2032_263" transform="translate(28.8626 10.1146) scale(0.0139371) rotate(-120.149)"/>
<use xlink:href="#stroke1_2032_263" transform="translate(31.8197 10.4908) scale(0.013302) rotate(-178.427)"/>
<use xlink:href="#stroke1_2032_263" transform="translate(34.0085 8.27038) scale(0.0189442) rotate(111.691)"/>
<use xlink:href="#stroke1_2032_263" transform="translate(32.1253 8.58826) scale(0.0136137) rotate(78.5309)"/>
<use xlink:href="#stroke1_2032_263" transform="translate(27.6576 11.5148) scale(0.013676) rotate(-41.5094)"/>
<use xlink:href="#stroke2_2032_263" transform="translate(51.0824 24.58) scale(0.0185959) rotate(84.8402)"/>
<use xlink:href="#stroke2_2032_263" transform="translate(45.7645 27.0258) scale(0.019626) rotate(-50.8173)"/>
<use xlink:href="#stroke2_2032_263" transform="translate(48.4775 24.7966) scale(0.0159691) rotate(-12.9167)"/>
<use xlink:href="#stroke2_2032_263" transform="translate(55.1518 25.7597) scale(0.0144604) rotate(114.48)"/>
<use xlink:href="#stroke2_2032_263" transform="translate(55.9169 27.8129) scale(0.0139371) rotate(159.082)"/>
<use xlink:href="#stroke2_2032_263" transform="translate(56.8878 25.2457) scale(0.013302) rotate(106.102)"/>
<use xlink:href="#stroke2_2032_263" transform="translate(54.775 22.583) scale(0.0189442) rotate(28.5752)"/>
<use xlink:href="#stroke2_2032_263" transform="translate(54.693 24.6206) scale(0.0136137) rotate(-9.96358)"/>
<use xlink:href="#stroke2_2032_263" transform="translate(57.5773 29.157) scale(0.013676) rotate(-131.562)"/>
<use xlink:href="#stroke2_2032_263" transform="translate(55.8537 25.9338) scale(0.0156114) rotate(-40.9661)"/>
<use xlink:href="#stroke2_2032_263" transform="translate(63.9266 27.2197) scale(0.0180173) rotate(144.825)"/>
<use xlink:href="#stroke2_2032_263" transform="translate(60.0265 30.2474) scale(0.0201222) rotate(-118.473)"/>
<use xlink:href="#stroke3_2032_263" transform="translate(33.6211 48.1823) scale(0.0185959) rotate(-141.14)"/>
<use xlink:href="#stroke3_2032_263" transform="translate(33.8812 41.7978) scale(0.019626) rotate(47.2943)"/>
<use xlink:href="#stroke3_2032_263" transform="translate(35.5582 44.6089) scale(0.0159691) rotate(80.1614)"/>
<use xlink:href="#stroke3_2032_263" transform="translate(34.211 51.2314) scale(0.0144604) rotate(-151.543)"/>
<use xlink:href="#stroke3_2032_263" transform="translate(32.1877 51.9077) scale(0.0139371) rotate(-109.066)"/>
<use xlink:href="#stroke3_2032_263" transform="translate(35.0391 52.8265) scale(0.013302) rotate(-168.184)"/>
<use xlink:href="#stroke3_2032_263" transform="translate(37.575 50.3985) scale(0.0189442) rotate(112.554)"/>
<use xlink:href="#stroke3_2032_263" transform="translate(35.6096 50.6105) scale(0.0136137) rotate(76.7915)"/>
<use xlink:href="#stroke3_2032_263" transform="translate(31.2647 53.9505) scale(0.013676) rotate(-49.0042)"/>
<use xlink:href="#stroke3_2032_263" transform="translate(34.0604 51.8282) scale(0.0156114) rotate(38.5341)"/>
<use xlink:href="#stroke3_2032_263" transform="translate(33.6004 59.9019) scale(0.0180173) rotate(-125.332)"/>
<use xlink:href="#stroke4_2032_263" transform="translate(10.1132 29.231) scale(0.0185959) rotate(-77.8793)"/>
<use xlink:href="#stroke4_2032_263" transform="translate(16.0668 27.3256) scale(0.019626) rotate(125.414)"/>
<use xlink:href="#stroke4_2032_263" transform="translate(13.8575 29.1761) scale(0.0159691) rotate(150.19)"/>
<use xlink:href="#stroke4_2032_263" transform="translate(6.83957 29.459) scale(0.0144604) rotate(-68.9042)"/>
<use xlink:href="#stroke4_2032_263" transform="translate(6.0278 27.2037) scale(0.0139371) rotate(-20.4375)"/>
<use xlink:href="#stroke4_2032_263" transform="translate(5.08496 29.8835) scale(0.013302) rotate(-75.7029)"/>
<use xlink:href="#stroke4_2032_263" transform="translate(7.77877 32.3789) scale(0.0189442) rotate(-160.873)"/>
<use xlink:href="#stroke4_2032_263" transform="translate(7.54305 30.358) scale(0.0136137) rotate(160.05)"/>
<use xlink:href="#stroke4_2032_263" transform="translate(4.12836 26.3497) scale(0.013676) rotate(42.8917)"/>
<use xlink:href="#stroke4_2032_263" transform="translate(5.79117 30.858) scale(0.0156114) rotate(159.843)"/>
<use xlink:href="#stroke4_2032_263" transform="translate(0.89477 25.5128) scale(0.0180173) rotate(16.5864)"/>
<use xlink:href="#stroke5_2032_263" transform="translate(12.0004 12.2134) scale(0.0185959) rotate(179.637)"/>
<use xlink:href="#stroke5_2032_263" transform="translate(8.08138 7.15821) scale(0.019626) rotate(6.51805)"/>
<use xlink:href="#stroke5_2032_263" transform="translate(10.9363 8.1693) scale(0.0159691) rotate(34.1668)"/>
<use xlink:href="#stroke5_2032_263" transform="translate(14.6984 13.8339) scale(0.0144604) rotate(164.163)"/>
<use xlink:href="#stroke5_2032_263" transform="translate(13.8142 15.6975) scale(0.0139371) rotate(-155.074)"/>
<use xlink:href="#stroke5_2032_263" transform="translate(16.4286 14.3899) scale(0.013302) rotate(148.159)"/>
<use xlink:href="#stroke5_2032_263" transform="translate(16.9547 11.2655) scale(0.0189442) rotate(76.7616)"/>
<use xlink:href="#stroke5_2032_263" transform="translate(15.4487 12.5883) scale(0.0136137) rotate(40.2866)"/>
<use xlink:href="#stroke5_2032_263" transform="translate(13.9087 17.7798) scale(0.013676) rotate(-83.851)"/>
<use xlink:href="#stroke5_2032_263" transform="translate(14.7576 14.6377) scale(0.0156114) rotate(-1.94406)"/>
<use xlink:href="#stroke5_2032_263" transform="translate(19.7028 20.3051) scale(0.0180173) rotate(-175.984)"/>
<use xlink:href="#stroke6_2032_263" transform="translate(45.3562 9.56174) scale(0.0185959) rotate(-105.406)"/>
<use xlink:href="#stroke6_2032_263" transform="translate(49.1821 4.42409) scale(0.019626) rotate(79.7381)"/>
<use xlink:href="#stroke6_2032_263" transform="translate(49.1478 8.01578) scale(0.0159691) rotate(118.837)"/>
<use xlink:href="#stroke6_2032_263" transform="translate(43.6969 12.1924) scale(0.0144604) rotate(-108.21)"/>
<use xlink:href="#stroke6_2032_263" transform="translate(41.7611 11.288) scale(0.0139371) rotate(-65.5195)"/>
<use xlink:href="#stroke6_2032_263" transform="translate(42.9945 13.8495) scale(0.013302) rotate(-120.782)"/>
<use xlink:href="#stroke6_2032_263" transform="translate(46.4096 14.0962) scale(0.0189442) rotate(161.062)"/>
<use xlink:href="#stroke6_2032_263" transform="translate(44.9436 12.5997) scale(0.0136137) rotate(121.483)"/>
<use xlink:href="#stroke6_2032_263" transform="translate(39.0274 12.6478) scale(0.013676) rotate(-22.2283)"/>
<use xlink:href="#stroke7_2032_263" transform="translate(48.4418 41.7471) scale(0.0185959) rotate(170.013)"/>
<use xlink:href="#stroke7_2032_263" transform="translate(43.9649 37.2156) scale(0.019626) rotate(1.85054)"/>
<use xlink:href="#stroke7_2032_263" transform="translate(47.3154 38.0222) scale(0.0159691) rotate(38.5384)"/>
<use xlink:href="#stroke7_2032_263" transform="translate(51.0887 43.2626) scale(0.0144604) rotate(155.751)"/>
<use xlink:href="#stroke7_2032_263" transform="translate(50.3951 45.2789) scale(0.0139371) rotate(-161.536)"/>
<use xlink:href="#stroke7_2032_263" transform="translate(52.7369 44.0324) scale(0.013302) rotate(147.959)"/>
<use xlink:href="#stroke7_2032_263" transform="translate(53.0609 40.75) scale(0.0189442) rotate(72.8831)"/>
<use xlink:href="#stroke7_2032_263" transform="translate(51.5632 42.1515) scale(0.0136137) rotate(33.987)"/>
<use xlink:href="#stroke7_2032_263" transform="translate(50.481 47.4033) scale(0.013676) rotate(-87.2295)"/>
<use xlink:href="#stroke7_2032_263" transform="translate(51.5904 43.8295) scale(0.0156114) rotate(5.73757)"/>
<use xlink:href="#stroke7_2032_263" transform="translate(56.1433 50.6181) scale(0.0180173) rotate(-167.845)"/>
<use xlink:href="#stroke7_2032_263" transform="translate(51.689 50.1441) scale(0.0201222) rotate(-74.3323)"/>
<use xlink:href="#stroke7_2032_263" transform="translate(53.0265 47.3735) scale(0.019235) rotate(-18.4915)"/>
<use xlink:href="#stroke8_2032_263" transform="translate(19.0017 42.2995) scale(0.0185959) rotate(-98.7998)"/>
<use xlink:href="#stroke8_2032_263" transform="translate(23.5878 37.8695) scale(0.019626) rotate(92.1007)"/>
<use xlink:href="#stroke8_2032_263" transform="translate(22.7889 41.1518) scale(0.0159691) rotate(127.161)"/>
<use xlink:href="#stroke8_2032_263" transform="translate(16.9486 44.625) scale(0.0144604) rotate(-102.973)"/>
<use xlink:href="#stroke8_2032_263" transform="translate(15.018 43.2101) scale(0.0139371) rotate(-54.3345)"/>
<use xlink:href="#stroke8_2032_263" transform="translate(15.6569 45.9129) scale(0.013302) rotate(-108.052)"/>
<use xlink:href="#stroke8_2032_263" transform="translate(18.8937 46.936) scale(0.0189442) rotate(174.54)"/>
<use xlink:href="#stroke8_2032_263" transform="translate(17.823 45.1882) scale(0.0136137) rotate(135.715)"/>
<use xlink:href="#stroke8_2032_263" transform="translate(12.7622 43.1694) scale(0.013676) rotate(10.8822)"/>
<use xlink:href="#stroke8_2032_263" transform="translate(16.0489 44.5943) scale(0.0156114) rotate(99.4529)"/>
<use xlink:href="#stroke8_2032_263" transform="translate(8.86748 48.4431) scale(0.0180173) rotate(-69.9473)"/>
<use xlink:href="#stroke8_2032_263" transform="translate(10.0762 43.8833) scale(0.0201222) rotate(26.9773)"/>
<use xlink:href="#stroke8_2032_263" transform="translate(12.1485 45.5522) scale(0.019235) rotate(75.1811)"/>
<use xlink:href="#stroke8_2032_263" transform="translate(10.9556 53.1726) scale(0.0187636) rotate(-170.079)"/>
<defs>
<g id="stroke0_2032_263" data-figma-scatter-ref="stroke0_2032_263_ref" data-figma-scatter="f0.28_w0_aj180_sj0.25_r0_s0_sw5">
<path d="M103.731 283.547C110.352 281.363 112.807 281.348 116.121 283.468C130.109 292.418 124.85 308.718 107.972 308.727C90.3768 308.737 87.0606 289.046 103.731 283.547ZM139.837 35.4146C140.937 35.1787 142.512 35.114 143.337 35.271C144.162 35.4281 146.516 35.8391 148.567 36.1851C155.802 37.4051 160.179 46.6969 156.734 53.5249C152.924 61.0769 144.715 67.5811 140.859 66.1021C135.872 64.1881 137.625 69.8792 144.066 76.5152C148.306 80.8841 150.337 81.2685 150.337 77.7066C150.337 76.6574 151.622 74.3218 153.193 72.5161C154.823 70.6412 156.597 66.9201 157.324 63.8501C158.925 57.0892 160.788 55.2289 167.369 53.8169C177.32 51.6829 185.581 56.9263 183.752 64.2153C183.293 66.0423 183.901 67.6656 186.09 70.4585C196.859 84.1975 193.875 104.273 180.596 107.418C177.049 108.258 176.832 108.532 176.773 112.27C176.739 114.448 176.365 116.987 175.943 117.912C175.255 119.417 175.946 119.564 182.506 119.31C190.415 119.003 192.674 119.705 195.953 123.487C199.054 127.064 201.598 126.114 202.609 121.002C203.503 116.483 209.096 110.731 212.596 110.731C214.841 110.731 215.934 108.156 214.449 106.367C206.1 96.3056 222.234 73.6632 235.605 76.6792C241.572 78.0252 246.302 83.6302 246.367 89.4312C246.384 90.9712 247.505 94.4811 248.858 97.231C255.362 110.453 243.304 126.225 232.777 118.263C229.924 116.105 229.837 116.226 229.837 122.341C229.837 128.93 225.932 133.292 219.049 134.393C216.068 134.87 214.933 135.67 213.775 138.116C212.964 139.829 211.55 142.415 210.63 143.863C208.984 146.456 209.02 146.565 213.147 151.254C215.451 153.871 217.337 156.555 217.337 157.218C217.337 157.882 218.074 159.901 218.974 161.706C222.148 168.067 221.073 181.731 217.4 181.731C217.052 181.731 215.97 183.081 214.995 184.731C214.02 186.381 212.573 187.731 211.779 187.731C209.595 187.731 210.044 189.817 212.863 192.76C216.384 196.435 217.425 204.867 214.728 207.858C209.503 213.649 203.05 218.01 198.064 219.122C193.944 220.041 192.83 220.705 192.804 222.259C192.669 230.389 188.242 235.387 179.682 237.077C172.845 238.427 172.072 240.31 177.577 242.203C190.358 246.597 192.892 257.693 182.442 263.506C176.521 266.799 172.426 266.758 167.515 263.354C163.894 260.845 163.161 260.686 159.679 261.653C153.737 263.303 147.363 262.934 141.337 260.593C135.874 258.47 130.724 257.068 124.689 256.061C118.715 255.064 115.151 249.943 114.592 241.551C114.184 235.417 113.671 233.745 111.425 231.231C109.951 229.581 107.986 226.544 107.058 224.481C105.42 220.844 105.211 220.731 100.164 220.731C93.7935 220.731 89.0798 217.922 86.2168 212.42C83.0468 206.327 78.9427 207.336 78.8477 214.231C78.8097 216.981 78.4233 220.817 77.9883 222.755C77.2354 226.113 77.3507 226.324 80.4366 227.255C90.5004 230.29 90.3981 247.946 80.2881 252.934C55.9904 264.92 26.2411 240.473 47.875 226.298C49.556 225.196 50.1805 223.494 50.6895 218.626C51.0495 215.185 52.1298 211.262 53.0908 209.91C54.0507 208.557 55.2736 206.856 55.8086 206.127C56.5016 205.184 56.0161 204.003 54.1221 202.017C50.6273 198.355 49.3112 194.657 49.9981 190.428C50.3281 188.392 50.1033 186.705 49.4463 186.299C48.8364 185.922 48.337 184.345 48.3369 182.794C48.3369 181.244 47.6012 179.366 46.7032 178.621C43.9996 176.376 34.3369 162.856 34.3369 161.317C34.3368 160.529 32.7627 157.822 30.8389 155.302C28.915 152.781 27.3998 150.384 27.4727 149.975C28.4457 144.478 24.6467 141.425 20.4727 144.348C18.2547 145.902 11.2222 145.776 6.86624 144.104C-3.23648 140.227 -1.78745 115.126 8.56839 114.62C14.8594 114.313 23.3369 117.551 23.3369 120.261C23.3372 122.018 26.1103 124.731 27.9073 124.731C28.6933 124.731 29.3369 124.041 29.3369 123.198C29.3372 109.814 50.1851 94.3087 69.8369 93.0767C82.9305 92.2547 88.2617 93.4969 97.1895 99.4468C101.45 102.287 108.337 96.8837 108.337 90.7007C108.337 88.6598 109.172 86.4706 110.483 85.0747C112.734 82.6789 111.804 79.7313 108.796 79.731C106.403 79.731 103.556 73.5422 104.077 69.4702C105.046 61.8843 117.633 57.7673 123.289 63.1861C125.639 65.4379 126.708 65.8083 129.245 65.2515C133.054 64.4145 133.128 63.4739 129.587 60.895C121.36 54.902 128.195 37.9086 139.837 35.4146ZM227.337 203.429C239.094 199.654 252.722 207.291 252.722 217.653C252.722 228.495 231.921 239.44 223.927 232.806C221.665 230.929 220.403 232.363 221.012 236.118C222.097 242.802 213.511 254.731 207.616 254.731C194.246 254.731 188.8 246.232 194.457 234.198C198.202 226.231 204.453 223.784 213.238 226.847C217.536 228.345 217.88 227.687 215.921 221.697C213.052 212.925 216.89 206.783 227.337 203.429ZM179.7 192.695C179.049 192.044 178.051 192.413 176.774 193.779C168.37 202.768 165.063 203.713 156.506 199.571C149.746 196.298 146.45 201.459 151.961 206.689C154.209 208.822 154.482 209.744 154.038 213.682C153.54 218.098 153.664 218.344 158.682 222.967C163.836 227.716 163.837 227.716 164.351 222.867C164.987 216.872 169.522 209.969 174.077 208.066C177.094 206.805 177.337 206.359 177.337 202.046C177.337 199.092 177.95 196.711 179.013 195.536C180.117 194.315 180.352 193.347 179.7 192.695ZM13.7354 183.697C21.2304 180.362 25.9355 181.225 32.1055 187.066C40.5644 195.074 37.0287 205.612 24.6309 209.343C9.40689 213.925 -0.704596 190.124 13.7354 183.697ZM252.956 148.251C262.129 145.732 267.81 147.203 270.983 152.921C277.397 164.478 257.352 180.919 247.179 172.445C237.093 164.044 240.016 151.805 252.956 148.251ZM175.822 162.709C174.842 161.123 172.482 161.589 171.417 163.579C170.283 165.699 171.384 170.913 173.086 171.481C174.366 171.905 176.761 164.229 175.822 162.709ZM150.152 111.481C150.492 108.526 149.534 108.177 145.513 109.79C142.108 111.155 143.035 114.231 146.851 114.231C149.365 114.231 149.886 113.796 150.152 111.481ZM156.837 98.731C156.012 98.731 155.337 99.406 155.337 100.231C155.337 101.056 156.012 101.731 156.837 101.731C157.662 101.731 158.337 101.056 158.337 100.231C158.337 99.4061 157.662 98.7312 156.837 98.731ZM131.337 85.6382C131.337 82.8002 129.491 81.4004 127.429 82.6743C126.501 83.2473 126.685 84.2905 128.185 86.9605C129.273 88.9003 130.316 91.46 130.5 92.6489C130.685 93.8379 131.287 94.905 131.837 95.021C133.25 95.317 133.729 90.7224 132.422 89.4155C131.825 88.8185 131.337 87.1191 131.337 85.6382ZM79.8369 36.9214C89.8819 31.2487 102.893 46.8492 95.6582 55.8921C92.2024 60.211 91.2042 63.981 91.8701 70.1997C92.5322 76.3837 92.4821 76.5638 89.0371 80.3628C76.0391 94.6997 55.1533 78.5005 64.8242 61.5825C66.3391 58.9327 67.3172 55.6452 67.3242 53.1753C67.3402 47.7053 72.4159 41.1124 79.8369 36.9214ZM120.896 78.731C120.653 78.731 120.177 79.1811 119.837 79.731C119.497 80.2809 119.695 80.7309 120.277 80.731C120.859 80.731 121.337 80.281 121.337 79.731C121.337 79.181 121.139 78.731 120.896 78.731ZM205.485 39.4898C219.631 37.0418 227.598 50.9151 220.597 65.8081C213.393 81.13 190.339 77.7861 190.091 61.3823C189.98 54.0764 199.509 40.5238 205.485 39.4898ZM51.8369 14.5542C64.4449 5.86451 75.68 19.3671 68.6241 34.731C62.385 48.3167 41.3372 43.775 41.3369 28.8423C41.3369 26.0333 47.6529 17.4382 51.8369 14.5542ZM108.212 2.17043C121.43 -6.81137 141.546 14.0924 133.237 28.1743C132.084 30.1297 130.819 31.7302 130.427 31.731C130.035 31.731 128.813 32.5703 127.713 33.5962C119.456 41.2872 107.786 35.7761 103.367 22.0991C100.152 12.1461 101.463 6.75643 108.212 2.17043Z" fill="currentColor"/>
</g>
<path id="stroke0_2032_263_ref" d="M34.8268 17.5276C31.7024 16.9433 26.1965 17.3289 23.6351 19.1753C21.3213 20.8432 20.2897 23.3589 19.6 27.2474C19.0582 30.3018 20.0834 32.7135 21.2594 33.8792C23.5252 36.1249 25.9725 37.5807 28.3334 38.5594C30.6294 39.5111 35.77 39.7309 39.5339 38.5681C40.8833 38.1513 41.5058 36.8153 41.8978 35.6496C43.0898 32.105 42.1012 26.888 41.3142 24.5479C40.5272 22.2078 39.7432 19.8765 37.7831 18.2142C36.607 17.7263 35.4222 17.3348 34.2461 16.9462C33.6537 16.7505 33.07 16.5577 33.0583 16.359"/>
<g id="stroke1_2032_263" data-figma-scatter-ref="stroke1_2032_263_ref" data-figma-scatter="f0.28_w0_aj180_sj0.25_r0_s0_sw5">
<path d="M103.731 283.547C110.352 281.363 112.807 281.348 116.121 283.468C130.109 292.418 124.85 308.718 107.972 308.727C90.3768 308.737 87.0606 289.046 103.731 283.547ZM139.837 35.4146C140.937 35.1787 142.512 35.114 143.337 35.271C144.162 35.4281 146.516 35.8391 148.567 36.1851C155.802 37.4051 160.179 46.6969 156.734 53.5249C152.924 61.0769 144.715 67.5811 140.859 66.1021C135.872 64.1881 137.625 69.8792 144.066 76.5152C148.306 80.8841 150.337 81.2685 150.337 77.7066C150.337 76.6574 151.622 74.3218 153.193 72.5161C154.823 70.6412 156.597 66.9201 157.324 63.8501C158.925 57.0892 160.788 55.2289 167.369 53.8169C177.32 51.6829 185.581 56.9263 183.752 64.2153C183.293 66.0423 183.901 67.6656 186.09 70.4585C196.859 84.1975 193.875 104.273 180.596 107.418C177.049 108.258 176.832 108.532 176.773 112.27C176.739 114.448 176.365 116.987 175.943 117.912C175.255 119.417 175.946 119.564 182.506 119.31C190.415 119.003 192.674 119.705 195.953 123.487C199.054 127.064 201.598 126.114 202.609 121.002C203.503 116.483 209.096 110.731 212.596 110.731C214.841 110.731 215.934 108.156 214.449 106.367C206.1 96.3056 222.234 73.6632 235.605 76.6792C241.572 78.0252 246.302 83.6302 246.367 89.4312C246.384 90.9712 247.505 94.4811 248.858 97.231C255.362 110.453 243.304 126.225 232.777 118.263C229.924 116.105 229.837 116.226 229.837 122.341C229.837 128.93 225.932 133.292 219.049 134.393C216.068 134.87 214.933 135.67 213.775 138.116C212.964 139.829 211.55 142.415 210.63 143.863C208.984 146.456 209.02 146.565 213.147 151.254C215.451 153.871 217.337 156.555 217.337 157.218C217.337 157.882 218.074 159.901 218.974 161.706C222.148 168.067 221.073 181.731 217.4 181.731C217.052 181.731 215.97 183.081 214.995 184.731C214.02 186.381 212.573 187.731 211.779 187.731C209.595 187.731 210.044 189.817 212.863 192.76C216.384 196.435 217.425 204.867 214.728 207.858C209.503 213.649 203.05 218.01 198.064 219.122C193.944 220.041 192.83 220.705 192.804 222.259C192.669 230.389 188.242 235.387 179.682 237.077C172.845 238.427 172.072 240.31 177.577 242.203C190.358 246.597 192.892 257.693 182.442 263.506C176.521 266.799 172.426 266.758 167.515 263.354C163.894 260.845 163.161 260.686 159.679 261.653C153.737 263.303 147.363 262.934 141.337 260.593C135.874 258.47 130.724 257.068 124.689 256.061C118.715 255.064 115.151 249.943 114.592 241.551C114.184 235.417 113.671 233.745 111.425 231.231C109.951 229.581 107.986 226.544 107.058 224.481C105.42 220.844 105.211 220.731 100.164 220.731C93.7935 220.731 89.0798 217.922 86.2168 212.42C83.0468 206.327 78.9427 207.336 78.8477 214.231C78.8097 216.981 78.4233 220.817 77.9883 222.755C77.2354 226.113 77.3507 226.324 80.4366 227.255C90.5004 230.29 90.3981 247.946 80.2881 252.934C55.9904 264.92 26.2411 240.473 47.875 226.298C49.556 225.196 50.1805 223.494 50.6895 218.626C51.0495 215.185 52.1298 211.262 53.0908 209.91C54.0507 208.557 55.2736 206.856 55.8086 206.127C56.5016 205.184 56.0161 204.003 54.1221 202.017C50.6273 198.355 49.3112 194.657 49.9981 190.428C50.3281 188.392 50.1033 186.705 49.4463 186.299C48.8364 185.922 48.337 184.345 48.3369 182.794C48.3369 181.244 47.6012 179.366 46.7032 178.621C43.9996 176.376 34.3369 162.856 34.3369 161.317C34.3368 160.529 32.7627 157.822 30.8389 155.302C28.915 152.781 27.3998 150.384 27.4727 149.975C28.4457 144.478 24.6467 141.425 20.4727 144.348C18.2547 145.902 11.2222 145.776 6.86624 144.104C-3.23648 140.227 -1.78745 115.126 8.56839 114.62C14.8594 114.313 23.3369 117.551 23.3369 120.261C23.3372 122.018 26.1103 124.731 27.9073 124.731C28.6933 124.731 29.3369 124.041 29.3369 123.198C29.3372 109.814 50.1851 94.3087 69.8369 93.0767C82.9305 92.2547 88.2617 93.4969 97.1895 99.4468C101.45 102.287 108.337 96.8837 108.337 90.7007C108.337 88.6598 109.172 86.4706 110.483 85.0747C112.734 82.6789 111.804 79.7313 108.796 79.731C106.403 79.731 103.556 73.5422 104.077 69.4702C105.046 61.8843 117.633 57.7673 123.289 63.1861C125.639 65.4379 126.708 65.8083 129.245 65.2515C133.054 64.4145 133.128 63.4739 129.587 60.895C121.36 54.902 128.195 37.9086 139.837 35.4146ZM227.337 203.429C239.094 199.654 252.722 207.291 252.722 217.653C252.722 228.495 231.921 239.44 223.927 232.806C221.665 230.929 220.403 232.363 221.012 236.118C222.097 242.802 213.511 254.731 207.616 254.731C194.246 254.731 188.8 246.232 194.457 234.198C198.202 226.231 204.453 223.784 213.238 226.847C217.536 228.345 217.88 227.687 215.921 221.697C213.052 212.925 216.89 206.783 227.337 203.429ZM179.7 192.695C179.049 192.044 178.051 192.413 176.774 193.779C168.37 202.768 165.063 203.713 156.506 199.571C149.746 196.298 146.45 201.459 151.961 206.689C154.209 208.822 154.482 209.744 154.038 213.682C153.54 218.098 153.664 218.344 158.682 222.967C163.836 227.716 163.837 227.716 164.351 222.867C164.987 216.872 169.522 209.969 174.077 208.066C177.094 206.805 177.337 206.359 177.337 202.046C177.337 199.092 177.95 196.711 179.013 195.536C180.117 194.315 180.352 193.347 179.7 192.695ZM13.7354 183.697C21.2304 180.362 25.9355 181.225 32.1055 187.066C40.5644 195.074 37.0287 205.612 24.6309 209.343C9.40689 213.925 -0.704596 190.124 13.7354 183.697ZM252.956 148.251C262.129 145.732 267.81 147.203 270.983 152.921C277.397 164.478 257.352 180.919 247.179 172.445C237.093 164.044 240.016 151.805 252.956 148.251ZM175.822 162.709C174.842 161.123 172.482 161.589 171.417 163.579C170.283 165.699 171.384 170.913 173.086 171.481C174.366 171.905 176.761 164.229 175.822 162.709ZM150.152 111.481C150.492 108.526 149.534 108.177 145.513 109.79C142.108 111.155 143.035 114.231 146.851 114.231C149.365 114.231 149.886 113.796 150.152 111.481ZM156.837 98.731C156.012 98.731 155.337 99.406 155.337 100.231C155.337 101.056 156.012 101.731 156.837 101.731C157.662 101.731 158.337 101.056 158.337 100.231C158.337 99.4061 157.662 98.7312 156.837 98.731ZM131.337 85.6382C131.337 82.8002 129.491 81.4004 127.429 82.6743C126.501 83.2473 126.685 84.2905 128.185 86.9605C129.273 88.9003 130.316 91.46 130.5 92.6489C130.685 93.8379 131.287 94.905 131.837 95.021C133.25 95.317 133.729 90.7224 132.422 89.4155C131.825 88.8185 131.337 87.1191 131.337 85.6382ZM79.8369 36.9214C89.8819 31.2487 102.893 46.8492 95.6582 55.8921C92.2024 60.211 91.2042 63.981 91.8701 70.1997C92.5322 76.3837 92.4821 76.5638 89.0371 80.3628C76.0391 94.6997 55.1533 78.5005 64.8242 61.5825C66.3391 58.9327 67.3172 55.6452 67.3242 53.1753C67.3402 47.7053 72.4159 41.1124 79.8369 36.9214ZM120.896 78.731C120.653 78.731 120.177 79.1811 119.837 79.731C119.497 80.2809 119.695 80.7309 120.277 80.731C120.859 80.731 121.337 80.281 121.337 79.731C121.337 79.181 121.139 78.731 120.896 78.731ZM205.485 39.4898C219.631 37.0418 227.598 50.9151 220.597 65.8081C213.393 81.13 190.339 77.7861 190.091 61.3823C189.98 54.0764 199.509 40.5238 205.485 39.4898ZM51.8369 14.5542C64.4449 5.86451 75.68 19.3671 68.6241 34.731C62.385 48.3167 41.3372 43.775 41.3369 28.8423C41.3369 26.0333 47.6529 17.4382 51.8369 14.5542ZM108.212 2.17043C121.43 -6.81137 141.546 14.0924 133.237 28.1743C132.084 30.1297 130.819 31.7302 130.427 31.731C130.035 31.731 128.813 32.5703 127.713 33.5962C119.456 41.2872 107.786 35.7761 103.367 22.0991C100.152 12.1461 101.463 6.75643 108.212 2.17043Z" fill="currentColor"/>
</g>
<path id="stroke1_2032_263_ref" d="M29.4512 2.35901C29.4512 2.79901 29.4512 4.34568 29.6162 6.67568C29.7812 7.68568 30.1112 8.34568 30.2812 9.23568C30.4512 10.1257 30.4512 11.2257 30.4512 12.359"/>
<g id="stroke2_2032_263" data-figma-scatter-ref="stroke2_2032_263_ref" data-figma-scatter="f0.28_w0_aj180_sj0.25_r0_s0_sw5">
<path d="M103.731 283.547C110.352 281.363 112.807 281.348 116.121 283.468C130.109 292.418 124.85 308.718 107.972 308.727C90.3768 308.737 87.0606 289.046 103.731 283.547ZM139.837 35.4146C140.937 35.1787 142.512 35.114 143.337 35.271C144.162 35.4281 146.516 35.8391 148.567 36.1851C155.802 37.4051 160.179 46.6969 156.734 53.5249C152.924 61.0769 144.715 67.5811 140.859 66.1021C135.872 64.1881 137.625 69.8792 144.066 76.5152C148.306 80.8841 150.337 81.2685 150.337 77.7066C150.337 76.6574 151.622 74.3218 153.193 72.5161C154.823 70.6412 156.597 66.9201 157.324 63.8501C158.925 57.0892 160.788 55.2289 167.369 53.8169C177.32 51.6829 185.581 56.9263 183.752 64.2153C183.293 66.0423 183.901 67.6656 186.09 70.4585C196.859 84.1975 193.875 104.273 180.596 107.418C177.049 108.258 176.832 108.532 176.773 112.27C176.739 114.448 176.365 116.987 175.943 117.912C175.255 119.417 175.946 119.564 182.506 119.31C190.415 119.003 192.674 119.705 195.953 123.487C199.054 127.064 201.598 126.114 202.609 121.002C203.503 116.483 209.096 110.731 212.596 110.731C214.841 110.731 215.934 108.156 214.449 106.367C206.1 96.3056 222.234 73.6632 235.605 76.6792C241.572 78.0252 246.302 83.6302 246.367 89.4312C246.384 90.9712 247.505 94.4811 248.858 97.231C255.362 110.453 243.304 126.225 232.777 118.263C229.924 116.105 229.837 116.226 229.837 122.341C229.837 128.93 225.932 133.292 219.049 134.393C216.068 134.87 214.933 135.67 213.775 138.116C212.964 139.829 211.55 142.415 210.63 143.863C208.984 146.456 209.02 146.565 213.147 151.254C215.451 153.871 217.337 156.555 217.337 157.218C217.337 157.882 218.074 159.901 218.974 161.706C222.148 168.067 221.073 181.731 217.4 181.731C217.052 181.731 215.97 183.081 214.995 184.731C214.02 186.381 212.573 187.731 211.779 187.731C209.595 187.731 210.044 189.817 212.863 192.76C216.384 196.435 217.425 204.867 214.728 207.858C209.503 213.649 203.05 218.01 198.064 219.122C193.944 220.041 192.83 220.705 192.804 222.259C192.669 230.389 188.242 235.387 179.682 237.077C172.845 238.427 172.072 240.31 177.577 242.203C190.358 246.597 192.892 257.693 182.442 263.506C176.521 266.799 172.426 266.758 167.515 263.354C163.894 260.845 163.161 260.686 159.679 261.653C153.737 263.303 147.363 262.934 141.337 260.593C135.874 258.47 130.724 257.068 124.689 256.061C118.715 255.064 115.151 249.943 114.592 241.551C114.184 235.417 113.671 233.745 111.425 231.231C109.951 229.581 107.986 226.544 107.058 224.481C105.42 220.844 105.211 220.731 100.164 220.731C93.7935 220.731 89.0798 217.922 86.2168 212.42C83.0468 206.327 78.9427 207.336 78.8477 214.231C78.8097 216.981 78.4233 220.817 77.9883 222.755C77.2354 226.113 77.3507 226.324 80.4366 227.255C90.5004 230.29 90.3981 247.946 80.2881 252.934C55.9904 264.92 26.2411 240.473 47.875 226.298C49.556 225.196 50.1805 223.494 50.6895 218.626C51.0495 215.185 52.1298 211.262 53.0908 209.91C54.0507 208.557 55.2736 206.856 55.8086 206.127C56.5016 205.184 56.0161 204.003 54.1221 202.017C50.6273 198.355 49.3112 194.657 49.9981 190.428C50.3281 188.392 50.1033 186.705 49.4463 186.299C48.8364 185.922 48.337 184.345 48.3369 182.794C48.3369 181.244 47.6012 179.366 46.7032 178.621C43.9996 176.376 34.3369 162.856 34.3369 161.317C34.3368 160.529 32.7627 157.822 30.8389 155.302C28.915 152.781 27.3998 150.384 27.4727 149.975C28.4457 144.478 24.6467 141.425 20.4727 144.348C18.2547 145.902 11.2222 145.776 6.86624 144.104C-3.23648 140.227 -1.78745 115.126 8.56839 114.62C14.8594 114.313 23.3369 117.551 23.3369 120.261C23.3372 122.018 26.1103 124.731 27.9073 124.731C28.6933 124.731 29.3369 124.041 29.3369 123.198C29.3372 109.814 50.1851 94.3087 69.8369 93.0767C82.9305 92.2547 88.2617 93.4969 97.1895 99.4468C101.45 102.287 108.337 96.8837 108.337 90.7007C108.337 88.6598 109.172 86.4706 110.483 85.0747C112.734 82.6789 111.804 79.7313 108.796 79.731C106.403 79.731 103.556 73.5422 104.077 69.4702C105.046 61.8843 117.633 57.7673 123.289 63.1861C125.639 65.4379 126.708 65.8083 129.245 65.2515C133.054 64.4145 133.128 63.4739 129.587 60.895C121.36 54.902 128.195 37.9086 139.837 35.4146ZM227.337 203.429C239.094 199.654 252.722 207.291 252.722 217.653C252.722 228.495 231.921 239.44 223.927 232.806C221.665 230.929 220.403 232.363 221.012 236.118C222.097 242.802 213.511 254.731 207.616 254.731C194.246 254.731 188.8 246.232 194.457 234.198C198.202 226.231 204.453 223.784 213.238 226.847C217.536 228.345 217.88 227.687 215.921 221.697C213.052 212.925 216.89 206.783 227.337 203.429ZM179.7 192.695C179.049 192.044 178.051 192.413 176.774 193.779C168.37 202.768 165.063 203.713 156.506 199.571C149.746 196.298 146.45 201.459 151.961 206.689C154.209 208.822 154.482 209.744 154.038 213.682C153.54 218.098 153.664 218.344 158.682 222.967C163.836 227.716 163.837 227.716 164.351 222.867C164.987 216.872 169.522 209.969 174.077 208.066C177.094 206.805 177.337 206.359 177.337 202.046C177.337 199.092 177.95 196.711 179.013 195.536C180.117 194.315 180.352 193.347 179.7 192.695ZM13.7354 183.697C21.2304 180.362 25.9355 181.225 32.1055 187.066C40.5644 195.074 37.0287 205.612 24.6309 209.343C9.40689 213.925 -0.704596 190.124 13.7354 183.697ZM252.956 148.251C262.129 145.732 267.81 147.203 270.983 152.921C277.397 164.478 257.352 180.919 247.179 172.445C237.093 164.044 240.016 151.805 252.956 148.251ZM175.822 162.709C174.842 161.123 172.482 161.589 171.417 163.579C170.283 165.699 171.384 170.913 173.086 171.481C174.366 171.905 176.761 164.229 175.822 162.709ZM150.152 111.481C150.492 108.526 149.534 108.177 145.513 109.79C142.108 111.155 143.035 114.231 146.851 114.231C149.365 114.231 149.886 113.796 150.152 111.481ZM156.837 98.731C156.012 98.731 155.337 99.406 155.337 100.231C155.337 101.056 156.012 101.731 156.837 101.731C157.662 101.731 158.337 101.056 158.337 100.231C158.337 99.4061 157.662 98.7312 156.837 98.731ZM131.337 85.6382C131.337 82.8002 129.491 81.4004 127.429 82.6743C126.501 83.2473 126.685 84.2905 128.185 86.9605C129.273 88.9003 130.316 91.46 130.5 92.6489C130.685 93.8379 131.287 94.905 131.837 95.021C133.25 95.317 133.729 90.7224 132.422 89.4155C131.825 88.8185 131.337 87.1191 131.337 85.6382ZM79.8369 36.9214C89.8819 31.2487 102.893 46.8492 95.6582 55.8921C92.2024 60.211 91.2042 63.981 91.8701 70.1997C92.5322 76.3837 92.4821 76.5638 89.0371 80.3628C76.0391 94.6997 55.1533 78.5005 64.8242 61.5825C66.3391 58.9327 67.3172 55.6452 67.3242 53.1753C67.3402 47.7053 72.4159 41.1124 79.8369 36.9214ZM120.896 78.731C120.653 78.731 120.177 79.1811 119.837 79.731C119.497 80.2809 119.695 80.7309 120.277 80.731C120.859 80.731 121.337 80.281 121.337 79.731C121.337 79.181 121.139 78.731 120.896 78.731ZM205.485 39.4898C219.631 37.0418 227.598 50.9151 220.597 65.8081C213.393 81.13 190.339 77.7861 190.091 61.3823C189.98 54.0764 199.509 40.5238 205.485 39.4898ZM51.8369 14.5542C64.4449 5.86451 75.68 19.3671 68.6241 34.731C62.385 48.3167 41.3372 43.775 41.3369 28.8423C41.3369 26.0333 47.6529 17.4382 51.8369 14.5542ZM108.212 2.17043C121.43 -6.81137 141.546 14.0924 133.237 28.1743C132.084 30.1297 130.819 31.7302 130.427 31.731C130.035 31.731 128.813 32.5703 127.713 33.5962C119.456 41.2872 107.786 35.7761 103.367 22.0991C100.152 12.1461 101.463 6.75643 108.212 2.17043Z" fill="currentColor"/>
</g>
<path id="stroke2_2032_263_ref" d="M48.4512 27.359C48.7961 27.0257 49.4877 26.8057 52.196 26.6373C52.7828 26.5823 52.9544 26.4723 54.4156 26.4157C55.8768 26.359 58.6224 26.359 61.4512 26.359"/>
<g id="stroke3_2032_263" data-figma-scatter-ref="stroke3_2032_263_ref" data-figma-scatter="f0.28_w0_aj180_sj0.25_r0_s0_sw5">
<path d="M103.731 283.547C110.352 281.363 112.807 281.348 116.121 283.468C130.109 292.418 124.85 308.718 107.972 308.727C90.3768 308.737 87.0606 289.046 103.731 283.547ZM139.837 35.4146C140.937 35.1787 142.512 35.114 143.337 35.271C144.162 35.4281 146.516 35.8391 148.567 36.1851C155.802 37.4051 160.179 46.6969 156.734 53.5249C152.924 61.0769 144.715 67.5811 140.859 66.1021C135.872 64.1881 137.625 69.8792 144.066 76.5152C148.306 80.8841 150.337 81.2685 150.337 77.7066C150.337 76.6574 151.622 74.3218 153.193 72.5161C154.823 70.6412 156.597 66.9201 157.324 63.8501C158.925 57.0892 160.788 55.2289 167.369 53.8169C177.32 51.6829 185.581 56.9263 183.752 64.2153C183.293 66.0423 183.901 67.6656 186.09 70.4585C196.859 84.1975 193.875 104.273 180.596 107.418C177.049 108.258 176.832 108.532 176.773 112.27C176.739 114.448 176.365 116.987 175.943 117.912C175.255 119.417 175.946 119.564 182.506 119.31C190.415 119.003 192.674 119.705 195.953 123.487C199.054 127.064 201.598 126.114 202.609 121.002C203.503 116.483 209.096 110.731 212.596 110.731C214.841 110.731 215.934 108.156 214.449 106.367C206.1 96.3056 222.234 73.6632 235.605 76.6792C241.572 78.0252 246.302 83.6302 246.367 89.4312C246.384 90.9712 247.505 94.4811 248.858 97.231C255.362 110.453 243.304 126.225 232.777 118.263C229.924 116.105 229.837 116.226 229.837 122.341C229.837 128.93 225.932 133.292 219.049 134.393C216.068 134.87 214.933 135.67 213.775 138.116C212.964 139.829 211.55 142.415 210.63 143.863C208.984 146.456 209.02 146.565 213.147 151.254C215.451 153.871 217.337 156.555 217.337 157.218C217.337 157.882 218.074 159.901 218.974 161.706C222.148 168.067 221.073 181.731 217.4 181.731C217.052 181.731 215.97 183.081 214.995 184.731C214.02 186.381 212.573 187.731 211.779 187.731C209.595 187.731 210.044 189.817 212.863 192.76C216.384 196.435 217.425 204.867 214.728 207.858C209.503 213.649 203.05 218.01 198.064 219.122C193.944 220.041 192.83 220.705 192.804 222.259C192.669 230.389 188.242 235.387 179.682 237.077C172.845 238.427 172.072 240.31 177.577 242.203C190.358 246.597 192.892 257.693 182.442 263.506C176.521 266.799 172.426 266.758 167.515 263.354C163.894 260.845 163.161 260.686 159.679 261.653C153.737 263.303 147.363 262.934 141.337 260.593C135.874 258.47 130.724 257.068 124.689 256.061C118.715 255.064 115.151 249.943 114.592 241.551C114.184 235.417 113.671 233.745 111.425 231.231C109.951 229.581 107.986 226.544 107.058 224.481C105.42 220.844 105.211 220.731 100.164 220.731C93.7935 220.731 89.0798 217.922 86.2168 212.42C83.0468 206.327 78.9427 207.336 78.8477 214.231C78.8097 216.981 78.4233 220.817 77.9883 222.755C77.2354 226.113 77.3507 226.324 80.4366 227.255C90.5004 230.29 90.3981 247.946 80.2881 252.934C55.9904 264.92 26.2411 240.473 47.875 226.298C49.556 225.196 50.1805 223.494 50.6895 218.626C51.0495 215.185 52.1298 211.262 53.0908 209.91C54.0507 208.557 55.2736 206.856 55.8086 206.127C56.5016 205.184 56.0161 204.003 54.1221 202.017C50.6273 198.355 49.3112 194.657 49.9981 190.428C50.3281 188.392 50.1033 186.705 49.4463 186.299C48.8364 185.922 48.337 184.345 48.3369 182.794C48.3369 181.244 47.6012 179.366 46.7032 178.621C43.9996 176.376 34.3369 162.856 34.3369 161.317C34.3368 160.529 32.7627 157.822 30.8389 155.302C28.915 152.781 27.3998 150.384 27.4727 149.975C28.4457 144.478 24.6467 141.425 20.4727 144.348C18.2547 145.902 11.2222 145.776 6.86624 144.104C-3.23648 140.227 -1.78745 115.126 8.56839 114.62C14.8594 114.313 23.3369 117.551 23.3369 120.261C23.3372 122.018 26.1103 124.731 27.9073 124.731C28.6933 124.731 29.3369 124.041 29.3369 123.198C29.3372 109.814 50.1851 94.3087 69.8369 93.0767C82.9305 92.2547 88.2617 93.4969 97.1895 99.4468C101.45 102.287 108.337 96.8837 108.337 90.7007C108.337 88.6598 109.172 86.4706 110.483 85.0747C112.734 82.6789 111.804 79.7313 108.796 79.731C106.403 79.731 103.556 73.5422 104.077 69.4702C105.046 61.8843 117.633 57.7673 123.289 63.1861C125.639 65.4379 126.708 65.8083 129.245 65.2515C133.054 64.4145 133.128 63.4739 129.587 60.895C121.36 54.902 128.195 37.9086 139.837 35.4146ZM227.337 203.429C239.094 199.654 252.722 207.291 252.722 217.653C252.722 228.495 231.921 239.44 223.927 232.806C221.665 230.929 220.403 232.363 221.012 236.118C222.097 242.802 213.511 254.731 207.616 254.731C194.246 254.731 188.8 246.232 194.457 234.198C198.202 226.231 204.453 223.784 213.238 226.847C217.536 228.345 217.88 227.687 215.921 221.697C213.052 212.925 216.89 206.783 227.337 203.429ZM179.7 192.695C179.049 192.044 178.051 192.413 176.774 193.779C168.37 202.768 165.063 203.713 156.506 199.571C149.746 196.298 146.45 201.459 151.961 206.689C154.209 208.822 154.482 209.744 154.038 213.682C153.54 218.098 153.664 218.344 158.682 222.967C163.836 227.716 163.837 227.716 164.351 222.867C164.987 216.872 169.522 209.969 174.077 208.066C177.094 206.805 177.337 206.359 177.337 202.046C177.337 199.092 177.95 196.711 179.013 195.536C180.117 194.315 180.352 193.347 179.7 192.695ZM13.7354 183.697C21.2304 180.362 25.9355 181.225 32.1055 187.066C40.5644 195.074 37.0287 205.612 24.6309 209.343C9.40689 213.925 -0.704596 190.124 13.7354 183.697ZM252.956 148.251C262.129 145.732 267.81 147.203 270.983 152.921C277.397 164.478 257.352 180.919 247.179 172.445C237.093 164.044 240.016 151.805 252.956 148.251ZM175.822 162.709C174.842 161.123 172.482 161.589 171.417 163.579C170.283 165.699 171.384 170.913 173.086 171.481C174.366 171.905 176.761 164.229 175.822 162.709ZM150.152 111.481C150.492 108.526 149.534 108.177 145.513 109.79C142.108 111.155 143.035 114.231 146.851 114.231C149.365 114.231 149.886 113.796 150.152 111.481ZM156.837 98.731C156.012 98.731 155.337 99.406 155.337 100.231C155.337 101.056 156.012 101.731 156.837 101.731C157.662 101.731 158.337 101.056 158.337 100.231C158.337 99.4061 157.662 98.7312 156.837 98.731ZM131.337 85.6382C131.337 82.8002 129.491 81.4004 127.429 82.6743C126.501 83.2473 126.685 84.2905 128.185 86.9605C129.273 88.9003 130.316 91.46 130.5 92.6489C130.685 93.8379 131.287 94.905 131.837 95.021C133.25 95.317 133.729 90.7224 132.422 89.4155C131.825 88.8185 131.337 87.1191 131.337 85.6382ZM79.8369 36.9214C89.8819 31.2487 102.893 46.8492 95.6582 55.8921C92.2024 60.211 91.2042 63.981 91.8701 70.1997C92.5322 76.3837 92.4821 76.5638 89.0371 80.3628C76.0391 94.6997 55.1533 78.5005 64.8242 61.5825C66.3391 58.9327 67.3172 55.6452 67.3242 53.1753C67.3402 47.7053 72.4159 41.1124 79.8369 36.9214ZM120.896 78.731C120.653 78.731 120.177 79.1811 119.837 79.731C119.497 80.2809 119.695 80.7309 120.277 80.731C120.859 80.731 121.337 80.281 121.337 79.731C121.337 79.181 121.139 78.731 120.896 78.731ZM205.485 39.4898C219.631 37.0418 227.598 50.9151 220.597 65.8081C213.393 81.13 190.339 77.7861 190.091 61.3823C189.98 54.0764 199.509 40.5238 205.485 39.4898ZM51.8369 14.5542C64.4449 5.86451 75.68 19.3671 68.6241 34.731C62.385 48.3167 41.3372 43.775 41.3369 28.8423C41.3369 26.0333 47.6529 17.4382 51.8369 14.5542ZM108.212 2.17043C121.43 -6.81137 141.546 14.0924 133.237 28.1743C132.084 30.1297 130.819 31.7302 130.427 31.731C130.035 31.731 128.813 32.5703 127.713 33.5962C119.456 41.2872 107.786 35.7761 103.367 22.0991C100.152 12.1461 101.463 6.75643 108.212 2.17043Z" fill="currentColor"/>
</g>
<path id="stroke3_2032_263_ref" d="M33.4512 44.359C33.4512 46.2336 33.5612 50.0314 33.7562 50.8958C33.9955 51.9568 33.9512 53.0541 34.0895 54.0044C34.1728 55.0601 34.3395 55.5466 34.4228 55.8701C34.4512 56.0331 34.4512 56.1936 34.4512 56.359"/>
<g id="stroke4_2032_263" data-figma-scatter-ref="stroke4_2032_263_ref" data-figma-scatter="f0.28_w0_aj180_sj0.25_r0_s0_sw5">
<path d="M103.731 283.547C110.352 281.363 112.807 281.348 116.121 283.468C130.109 292.418 124.85 308.718 107.972 308.727C90.3768 308.737 87.0606 289.046 103.731 283.547ZM139.837 35.4146C140.937 35.1787 142.512 35.114 143.337 35.271C144.162 35.4281 146.516 35.8391 148.567 36.1851C155.802 37.4051 160.179 46.6969 156.734 53.5249C152.924 61.0769 144.715 67.5811 140.859 66.1021C135.872 64.1881 137.625 69.8792 144.066 76.5152C148.306 80.8841 150.337 81.2685 150.337 77.7066C150.337 76.6574 151.622 74.3218 153.193 72.5161C154.823 70.6412 156.597 66.9201 157.324 63.8501C158.925 57.0892 160.788 55.2289 167.369 53.8169C177.32 51.6829 185.581 56.9263 183.752 64.2153C183.293 66.0423 183.901 67.6656 186.09 70.4585C196.859 84.1975 193.875 104.273 180.596 107.418C177.049 108.258 176.832 108.532 176.773 112.27C176.739 114.448 176.365 116.987 175.943 117.912C175.255 119.417 175.946 119.564 182.506 119.31C190.415 119.003 192.674 119.705 195.953 123.487C199.054 127.064 201.598 126.114 202.609 121.002C203.503 116.483 209.096 110.731 212.596 110.731C214.841 110.731 215.934 108.156 214.449 106.367C206.1 96.3056 222.234 73.6632 235.605 76.6792C241.572 78.0252 246.302 83.6302 246.367 89.4312C246.384 90.9712 247.505 94.4811 248.858 97.231C255.362 110.453 243.304 126.225 232.777 118.263C229.924 116.105 229.837 116.226 229.837 122.341C229.837 128.93 225.932 133.292 219.049 134.393C216.068 134.87 214.933 135.67 213.775 138.116C212.964 139.829 211.55 142.415 210.63 143.863C208.984 146.456 209.02 146.565 213.147 151.254C215.451 153.871 217.337 156.555 217.337 157.218C217.337 157.882 218.074 159.901 218.974 161.706C222.148 168.067 221.073 181.731 217.4 181.731C217.052 181.731 215.97 183.081 214.995 184.731C214.02 186.381 212.573 187.731 211.779 187.731C209.595 187.731 210.044 189.817 212.863 192.76C216.384 196.435 217.425 204.867 214.728 207.858C209.503 213.649 203.05 218.01 198.064 219.122C193.944 220.041 192.83 220.705 192.804 222.259C192.669 230.389 188.242 235.387 179.682 237.077C172.845 238.427 172.072 240.31 177.577 242.203C190.358 246.597 192.892 257.693 182.442 263.506C176.521 266.799 172.426 266.758 167.515 263.354C163.894 260.845 163.161 260.686 159.679 261.653C153.737 263.303 147.363 262.934 141.337 260.593C135.874 258.47 130.724 257.068 124.689 256.061C118.715 255.064 115.151 249.943 114.592 241.551C114.184 235.417 113.671 233.745 111.425 231.231C109.951 229.581 107.986 226.544 107.058 224.481C105.42 220.844 105.211 220.731 100.164 220.731C93.7935 220.731 89.0798 217.922 86.2168 212.42C83.0468 206.327 78.9427 207.336 78.8477 214.231C78.8097 216.981 78.4233 220.817 77.9883 222.755C77.2354 226.113 77.3507 226.324 80.4366 227.255C90.5004 230.29 90.3981 247.946 80.2881 252.934C55.9904 264.92 26.2411 240.473 47.875 226.298C49.556 225.196 50.1805 223.494 50.6895 218.626C51.0495 215.185 52.1298 211.262 53.0908 209.91C54.0507 208.557 55.2736 206.856 55.8086 206.127C56.5016 205.184 56.0161 204.003 54.1221 202.017C50.6273 198.355 49.3112 194.657 49.9981 190.428C50.3281 188.392 50.1033 186.705 49.4463 186.299C48.8364 185.922 48.337 184.345 48.3369 182.794C48.3369 181.244 47.6012 179.366 46.7032 178.621C43.9996 176.376 34.3369 162.856 34.3369 161.317C34.3368 160.529 32.7627 157.822 30.8389 155.302C28.915 152.781 27.3998 150.384 27.4727 149.975C28.4457 144.478 24.6467 141.425 20.4727 144.348C18.2547 145.902 11.2222 145.776 6.86624 144.104C-3.23648 140.227 -1.78745 115.126 8.56839 114.62C14.8594 114.313 23.3369 117.551 23.3369 120.261C23.3372 122.018 26.1103 124.731 27.9073 124.731C28.6933 124.731 29.3369 124.041 29.3369 123.198C29.3372 109.814 50.1851 94.3087 69.8369 93.0767C82.9305 92.2547 88.2617 93.4969 97.1895 99.4468C101.45 102.287 108.337 96.8837 108.337 90.7007C108.337 88.6598 109.172 86.4706 110.483 85.0747C112.734 82.6789 111.804 79.7313 108.796 79.731C106.403 79.731 103.556 73.5422 104.077 69.4702C105.046 61.8843 117.633 57.7673 123.289 63.1861C125.639 65.4379 126.708 65.8083 129.245 65.2515C133.054 64.4145 133.128 63.4739 129.587 60.895C121.36 54.902 128.195 37.9086 139.837 35.4146ZM227.337 203.429C239.094 199.654 252.722 207.291 252.722 217.653C252.722 228.495 231.921 239.44 223.927 232.806C221.665 230.929 220.403 232.363 221.012 236.118C222.097 242.802 213.511 254.731 207.616 254.731C194.246 254.731 188.8 246.232 194.457 234.198C198.202 226.231 204.453 223.784 213.238 226.847C217.536 228.345 217.88 227.687 215.921 221.697C213.052 212.925 216.89 206.783 227.337 203.429ZM179.7 192.695C179.049 192.044 178.051 192.413 176.774 193.779C168.37 202.768 165.063 203.713 156.506 199.571C149.746 196.298 146.45 201.459 151.961 206.689C154.209 208.822 154.482 209.744 154.038 213.682C153.54 218.098 153.664 218.344 158.682 222.967C163.836 227.716 163.837 227.716 164.351 222.867C164.987 216.872 169.522 209.969 174.077 208.066C177.094 206.805 177.337 206.359 177.337 202.046C177.337 199.092 177.95 196.711 179.013 195.536C180.117 194.315 180.352 193.347 179.7 192.695ZM13.7354 183.697C21.2304 180.362 25.9355 181.225 32.1055 187.066C40.5644 195.074 37.0287 205.612 24.6309 209.343C9.40689 213.925 -0.704596 190.124 13.7354 183.697ZM252.956 148.251C262.129 145.732 267.81 147.203 270.983 152.921C277.397 164.478 257.352 180.919 247.179 172.445C237.093 164.044 240.016 151.805 252.956 148.251ZM175.822 162.709C174.842 161.123 172.482 161.589 171.417 163.579C170.283 165.699 171.384 170.913 173.086 171.481C174.366 171.905 176.761 164.229 175.822 162.709ZM150.152 111.481C150.492 108.526 149.534 108.177 145.513 109.79C142.108 111.155 143.035 114.231 146.851 114.231C149.365 114.231 149.886 113.796 150.152 111.481ZM156.837 98.731C156.012 98.731 155.337 99.406 155.337 100.231C155.337 101.056 156.012 101.731 156.837 101.731C157.662 101.731 158.337 101.056 158.337 100.231C158.337 99.4061 157.662 98.7312 156.837 98.731ZM131.337 85.6382C131.337 82.8002 129.491 81.4004 127.429 82.6743C126.501 83.2473 126.685 84.2905 128.185 86.9605C129.273 88.9003 130.316 91.46 130.5 92.6489C130.685 93.8379 131.287 94.905 131.837 95.021C133.25 95.317 133.729 90.7224 132.422 89.4155C131.825 88.8185 131.337 87.1191 131.337 85.6382ZM79.8369 36.9214C89.8819 31.2487 102.893 46.8492 95.6582 55.8921C92.2024 60.211 91.2042 63.981 91.8701 70.1997C92.5322 76.3837 92.4821 76.5638 89.0371 80.3628C76.0391 94.6997 55.1533 78.5005 64.8242 61.5825C66.3391 58.9327 67.3172 55.6452 67.3242 53.1753C67.3402 47.7053 72.4159 41.1124 79.8369 36.9214ZM120.896 78.731C120.653 78.731 120.177 79.1811 119.837 79.731C119.497 80.2809 119.695 80.7309 120.277 80.731C120.859 80.731 121.337 80.281 121.337 79.731C121.337 79.181 121.139 78.731 120.896 78.731ZM205.485 39.4898C219.631 37.0418 227.598 50.9151 220.597 65.8081C213.393 81.13 190.339 77.7861 190.091 61.3823C189.98 54.0764 199.509 40.5238 205.485 39.4898ZM51.8369 14.5542C64.4449 5.86451 75.68 19.3671 68.6241 34.731C62.385 48.3167 41.3372 43.775 41.3369 28.8423C41.3369 26.0333 47.6529 17.4382 51.8369 14.5542ZM108.212 2.17043C121.43 -6.81137 141.546 14.0924 133.237 28.1743C132.084 30.1297 130.819 31.7302 130.427 31.731C130.035 31.731 128.813 32.5703 127.713 33.5962C119.456 41.2872 107.786 35.7761 103.367 22.0991C100.152 12.1461 101.463 6.75643 108.212 2.17043Z" fill="currentColor"/>
</g>
<path id="stroke4_2032_263_ref" d="M13.4512 27.359C12.9486 27.6122 11.593 27.7794 10.7469 28.1174C9.80535 28.4936 8.88533 28.539 7.08386 28.6669C6.11089 28.736 5.33148 29.0455 3.9514 29.1734C3.63748 29.2152 3.46994 29.2987 3.27194 29.3418C3.07394 29.3848 2.85056 29.3848 2.45117 28.8784"/>
<g id="stroke5_2032_263" data-figma-scatter-ref="stroke5_2032_263_ref" data-figma-scatter="f0.28_w0_aj180_sj0.25_r0_s0_sw5">
<path d="M103.731 283.547C110.352 281.363 112.807 281.348 116.121 283.468C130.109 292.418 124.85 308.718 107.972 308.727C90.3768 308.737 87.0606 289.046 103.731 283.547ZM139.837 35.4146C140.937 35.1787 142.512 35.114 143.337 35.271C144.162 35.4281 146.516 35.8391 148.567 36.1851C155.802 37.4051 160.179 46.6969 156.734 53.5249C152.924 61.0769 144.715 67.5811 140.859 66.1021C135.872 64.1881 137.625 69.8792 144.066 76.5152C148.306 80.8841 150.337 81.2685 150.337 77.7066C150.337 76.6574 151.622 74.3218 153.193 72.5161C154.823 70.6412 156.597 66.9201 157.324 63.8501C158.925 57.0892 160.788 55.2289 167.369 53.8169C177.32 51.6829 185.581 56.9263 183.752 64.2153C183.293 66.0423 183.901 67.6656 186.09 70.4585C196.859 84.1975 193.875 104.273 180.596 107.418C177.049 108.258 176.832 108.532 176.773 112.27C176.739 114.448 176.365 116.987 175.943 117.912C175.255 119.417 175.946 119.564 182.506 119.31C190.415 119.003 192.674 119.705 195.953 123.487C199.054 127.064 201.598 126.114 202.609 121.002C203.503 116.483 209.096 110.731 212.596 110.731C214.841 110.731 215.934 108.156 214.449 106.367C206.1 96.3056 222.234 73.6632 235.605 76.6792C241.572 78.0252 246.302 83.6302 246.367 89.4312C246.384 90.9712 247.505 94.4811 248.858 97.231C255.362 110.453 243.304 126.225 232.777 118.263C229.924 116.105 229.837 116.226 229.837 122.341C229.837 128.93 225.932 133.292 219.049 134.393C216.068 134.87 214.933 135.67 213.775 138.116C212.964 139.829 211.55 142.415 210.63 143.863C208.984 146.456 209.02 146.565 213.147 151.254C215.451 153.871 217.337 156.555 217.337 157.218C217.337 157.882 218.074 159.901 218.974 161.706C222.148 168.067 221.073 181.731 217.4 181.731C217.052 181.731 215.97 183.081 214.995 184.731C214.02 186.381 212.573 187.731 211.779 187.731C209.595 187.731 210.044 189.817 212.863 192.76C216.384 196.435 217.425 204.867 214.728 207.858C209.503 213.649 203.05 218.01 198.064 219.122C193.944 220.041 192.83 220.705 192.804 222.259C192.669 230.389 188.242 235.387 179.682 237.077C172.845 238.427 172.072 240.31 177.577 242.203C190.358 246.597 192.892 257.693 182.442 263.506C176.521 266.799 172.426 266.758 167.515 263.354C163.894 260.845 163.161 260.686 159.679 261.653C153.737 263.303 147.363 262.934 141.337 260.593C135.874 258.47 130.724 257.068 124.689 256.061C118.715 255.064 115.151 249.943 114.592 241.551C114.184 235.417 113.671 233.745 111.425 231.231C109.951 229.581 107.986 226.544 107.058 224.481C105.42 220.844 105.211 220.731 100.164 220.731C93.7935 220.731 89.0798 217.922 86.2168 212.42C83.0468 206.327 78.9427 207.336 78.8477 214.231C78.8097 216.981 78.4233 220.817 77.9883 222.755C77.2354 226.113 77.3507 226.324 80.4366 227.255C90.5004 230.29 90.3981 247.946 80.2881 252.934C55.9904 264.92 26.2411 240.473 47.875 226.298C49.556 225.196 50.1805 223.494 50.6895 218.626C51.0495 215.185 52.1298 211.262 53.0908 209.91C54.0507 208.557 55.2736 206.856 55.8086 206.127C56.5016 205.184 56.0161 204.003 54.1221 202.017C50.6273 198.355 49.3112 194.657 49.9981 190.428C50.3281 188.392 50.1033 186.705 49.4463 186.299C48.8364 185.922 48.337 184.345 48.3369 182.794C48.3369 181.244 47.6012 179.366 46.7032 178.621C43.9996 176.376 34.3369 162.856 34.3369 161.317C34.3368 160.529 32.7627 157.822 30.8389 155.302C28.915 152.781 27.3998 150.384 27.4727 149.975C28.4457 144.478 24.6467 141.425 20.4727 144.348C18.2547 145.902 11.2222 145.776 6.86624 144.104C-3.23648 140.227 -1.78745 115.126 8.56839 114.62C14.8594 114.313 23.3369 117.551 23.3369 120.261C23.3372 122.018 26.1103 124.731 27.9073 124.731C28.6933 124.731 29.3369 124.041 29.3369 123.198C29.3372 109.814 50.1851 94.3087 69.8369 93.0767C82.9305 92.2547 88.2617 93.4969 97.1895 99.4468C101.45 102.287 108.337 96.8837 108.337 90.7007C108.337 88.6598 109.172 86.4706 110.483 85.0747C112.734 82.6789 111.804 79.7313 108.796 79.731C106.403 79.731 103.556 73.5422 104.077 69.4702C105.046 61.8843 117.633 57.7673 123.289 63.1861C125.639 65.4379 126.708 65.8083 129.245 65.2515C133.054 64.4145 133.128 63.4739 129.587 60.895C121.36 54.902 128.195 37.9086 139.837 35.4146ZM227.337 203.429C239.094 199.654 252.722 207.291 252.722 217.653C252.722 228.495 231.921 239.44 223.927 232.806C221.665 230.929 220.403 232.363 221.012 236.118C222.097 242.802 213.511 254.731 207.616 254.731C194.246 254.731 188.8 246.232 194.457 234.198C198.202 226.231 204.453 223.784 213.238 226.847C217.536 228.345 217.88 227.687 215.921 221.697C213.052 212.925 216.89 206.783 227.337 203.429ZM179.7 192.695C179.049 192.044 178.051 192.413 176.774 193.779C168.37 202.768 165.063 203.713 156.506 199.571C149.746 196.298 146.45 201.459 151.961 206.689C154.209 208.822 154.482 209.744 154.038 213.682C153.54 218.098 153.664 218.344 158.682 222.967C163.836 227.716 163.837 227.716 164.351 222.867C164.987 216.872 169.522 209.969 174.077 208.066C177.094 206.805 177.337 206.359 177.337 202.046C177.337 199.092 177.95 196.711 179.013 195.536C180.117 194.315 180.352 193.347 179.7 192.695ZM13.7354 183.697C21.2304 180.362 25.9355 181.225 32.1055 187.066C40.5644 195.074 37.0287 205.612 24.6309 209.343C9.40689 213.925 -0.704596 190.124 13.7354 183.697ZM252.956 148.251C262.129 145.732 267.81 147.203 270.983 152.921C277.397 164.478 257.352 180.919 247.179 172.445C237.093 164.044 240.016 151.805 252.956 148.251ZM175.822 162.709C174.842 161.123 172.482 161.589 171.417 163.579C170.283 165.699 171.384 170.913 173.086 171.481C174.366 171.905 176.761 164.229 175.822 162.709ZM150.152 111.481C150.492 108.526 149.534 108.177 145.513 109.79C142.108 111.155 143.035 114.231 146.851 114.231C149.365 114.231 149.886 113.796 150.152 111.481ZM156.837 98.731C156.012 98.731 155.337 99.406 155.337 100.231C155.337 101.056 156.012 101.731 156.837 101.731C157.662 101.731 158.337 101.056 158.337 100.231C158.337 99.4061 157.662 98.7312 156.837 98.731ZM131.337 85.6382C131.337 82.8002 129.491 81.4004 127.429 82.6743C126.501 83.2473 126.685 84.2905 128.185 86.9605C129.273 88.9003 130.316 91.46 130.5 92.6489C130.685 93.8379 131.287 94.905 131.837 95.021C133.25 95.317 133.729 90.7224 132.422 89.4155C131.825 88.8185 131.337 87.1191 131.337 85.6382ZM79.8369 36.9214C89.8819 31.2487 102.893 46.8492 95.6582 55.8921C92.2024 60.211 91.2042 63.981 91.8701 70.1997C92.5322 76.3837 92.4821 76.5638 89.0371 80.3628C76.0391 94.6997 55.1533 78.5005 64.8242 61.5825C66.3391 58.9327 67.3172 55.6452 67.3242 53.1753C67.3402 47.7053 72.4159 41.1124 79.8369 36.9214ZM120.896 78.731C120.653 78.731 120.177 79.1811 119.837 79.731C119.497 80.2809 119.695 80.7309 120.277 80.731C120.859 80.731 121.337 80.281 121.337 79.731C121.337 79.181 121.139 78.731 120.896 78.731ZM205.485 39.4898C219.631 37.0418 227.598 50.9151 220.597 65.8081C213.393 81.13 190.339 77.7861 190.091 61.3823C189.98 54.0764 199.509 40.5238 205.485 39.4898ZM51.8369 14.5542C64.4449 5.86451 75.68 19.3671 68.6241 34.731C62.385 48.3167 41.3372 43.775 41.3369 28.8423C41.3369 26.0333 47.6529 17.4382 51.8369 14.5542ZM108.212 2.17043C121.43 -6.81137 141.546 14.0924 133.237 28.1743C132.084 30.1297 130.819 31.7302 130.427 31.731C130.035 31.731 128.813 32.5703 127.713 33.5962C119.456 41.2872 107.786 35.7761 103.367 22.0991C100.152 12.1461 101.463 6.75643 108.212 2.17043Z" fill="currentColor"/>
</g>
<path id="stroke5_2032_263_ref" d="M9.45117 9.35901C10.1162 10.1737 10.6712 10.8251 11.2545 11.3435C11.8687 11.8893 12.5578 12.621 13.5028 13.3557C14.6901 14.2788 15.1145 14.9623 15.6987 15.6145C16.1678 16.1019 16.5612 16.541 16.8103 16.8398C16.9495 16.977 17.1145 17.0847 17.4512 17.359"/>
<g id="stroke6_2032_263" data-figma-scatter-ref="stroke6_2032_263_ref" data-figma-scatter="f0.28_w0_aj180_sj0.25_r0_s0_sw5">
<path d="M103.731 283.547C110.352 281.363 112.807 281.348 116.121 283.468C130.109 292.418 124.85 308.718 107.972 308.727C90.3768 308.737 87.0606 289.046 103.731 283.547ZM139.837 35.4146C140.937 35.1787 142.512 35.114 143.337 35.271C144.162 35.4281 146.516 35.8391 148.567 36.1851C155.802 37.4051 160.179 46.6969 156.734 53.5249C152.924 61.0769 144.715 67.5811 140.859 66.1021C135.872 64.1881 137.625 69.8792 144.066 76.5152C148.306 80.8841 150.337 81.2685 150.337 77.7066C150.337 76.6574 151.622 74.3218 153.193 72.5161C154.823 70.6412 156.597 66.9201 157.324 63.8501C158.925 57.0892 160.788 55.2289 167.369 53.8169C177.32 51.6829 185.581 56.9263 183.752 64.2153C183.293 66.0423 183.901 67.6656 186.09 70.4585C196.859 84.1975 193.875 104.273 180.596 107.418C177.049 108.258 176.832 108.532 176.773 112.27C176.739 114.448 176.365 116.987 175.943 117.912C175.255 119.417 175.946 119.564 182.506 119.31C190.415 119.003 192.674 119.705 195.953 123.487C199.054 127.064 201.598 126.114 202.609 121.002C203.503 116.483 209.096 110.731 212.596 110.731C214.841 110.731 215.934 108.156 214.449 106.367C206.1 96.3056 222.234 73.6632 235.605 76.6792C241.572 78.0252 246.302 83.6302 246.367 89.4312C246.384 90.9712 247.505 94.4811 248.858 97.231C255.362 110.453 243.304 126.225 232.777 118.263C229.924 116.105 229.837 116.226 229.837 122.341C229.837 128.93 225.932 133.292 219.049 134.393C216.068 134.87 214.933 135.67 213.775 138.116C212.964 139.829 211.55 142.415 210.63 143.863C208.984 146.456 209.02 146.565 213.147 151.254C215.451 153.871 217.337 156.555 217.337 157.218C217.337 157.882 218.074 159.901 218.974 161.706C222.148 168.067 221.073 181.731 217.4 181.731C217.052 181.731 215.97 183.081 214.995 184.731C214.02 186.381 212.573 187.731 211.779 187.731C209.595 187.731 210.044 189.817 212.863 192.76C216.384 196.435 217.425 204.867 214.728 207.858C209.503 213.649 203.05 218.01 198.064 219.122C193.944 220.041 192.83 220.705 192.804 222.259C192.669 230.389 188.242 235.387 179.682 237.077C172.845 238.427 172.072 240.31 177.577 242.203C190.358 246.597 192.892 257.693 182.442 263.506C176.521 266.799 172.426 266.758 167.515 263.354C163.894 260.845 163.161 260.686 159.679 261.653C153.737 263.303 147.363 262.934 141.337 260.593C135.874 258.47 130.724 257.068 124.689 256.061C118.715 255.064 115.151 249.943 114.592 241.551C114.184 235.417 113.671 233.745 111.425 231.231C109.951 229.581 107.986 226.544 107.058 224.481C105.42 220.844 105.211 220.731 100.164 220.731C93.7935 220.731 89.0798 217.922 86.2168 212.42C83.0468 206.327 78.9427 207.336 78.8477 214.231C78.8097 216.981 78.4233 220.817 77.9883 222.755C77.2354 226.113 77.3507 226.324 80.4366 227.255C90.5004 230.29 90.3981 247.946 80.2881 252.934C55.9904 264.92 26.2411 240.473 47.875 226.298C49.556 225.196 50.1805 223.494 50.6895 218.626C51.0495 215.185 52.1298 211.262 53.0908 209.91C54.0507 208.557 55.2736 206.856 55.8086 206.127C56.5016 205.184 56.0161 204.003 54.1221 202.017C50.6273 198.355 49.3112 194.657 49.9981 190.428C50.3281 188.392 50.1033 186.705 49.4463 186.299C48.8364 185.922 48.337 184.345 48.3369 182.794C48.3369 181.244 47.6012 179.366 46.7032 178.621C43.9996 176.376 34.3369 162.856 34.3369 161.317C34.3368 160.529 32.7627 157.822 30.8389 155.302C28.915 152.781 27.3998 150.384 27.4727 149.975C28.4457 144.478 24.6467 141.425 20.4727 144.348C18.2547 145.902 11.2222 145.776 6.86624 144.104C-3.23648 140.227 -1.78745 115.126 8.56839 114.62C14.8594 114.313 23.3369 117.551 23.3369 120.261C23.3372 122.018 26.1103 124.731 27.9073 124.731C28.6933 124.731 29.3369 124.041 29.3369 123.198C29.3372 109.814 50.1851 94.3087 69.8369 93.0767C82.9305 92.2547 88.2617 93.4969 97.1895 99.4468C101.45 102.287 108.337 96.8837 108.337 90.7007C108.337 88.6598 109.172 86.4706 110.483 85.0747C112.734 82.6789 111.804 79.7313 108.796 79.731C106.403 79.731 103.556 73.5422 104.077 69.4702C105.046 61.8843 117.633 57.7673 123.289 63.1861C125.639 65.4379 126.708 65.8083 129.245 65.2515C133.054 64.4145 133.128 63.4739 129.587 60.895C121.36 54.902 128.195 37.9086 139.837 35.4146ZM227.337 203.429C239.094 199.654 252.722 207.291 252.722 217.653C252.722 228.495 231.921 239.44 223.927 232.806C221.665 230.929 220.403 232.363 221.012 236.118C222.097 242.802 213.511 254.731 207.616 254.731C194.246 254.731 188.8 246.232 194.457 234.198C198.202 226.231 204.453 223.784 213.238 226.847C217.536 228.345 217.88 227.687 215.921 221.697C213.052 212.925 216.89 206.783 227.337 203.429ZM179.7 192.695C179.049 192.044 178.051 192.413 176.774 193.779C168.37 202.768 165.063 203.713 156.506 199.571C149.746 196.298 146.45 201.459 151.961 206.689C154.209 208.822 154.482 209.744 154.038 213.682C153.54 218.098 153.664 218.344 158.682 222.967C163.836 227.716 163.837 227.716 164.351 222.867C164.987 216.872 169.522 209.969 174.077 208.066C177.094 206.805 177.337 206.359 177.337 202.046C177.337 199.092 177.95 196.711 179.013 195.536C180.117 194.315 180.352 193.347 179.7 192.695ZM13.7354 183.697C21.2304 180.362 25.9355 181.225 32.1055 187.066C40.5644 195.074 37.0287 205.612 24.6309 209.343C9.40689 213.925 -0.704596 190.124 13.7354 183.697ZM252.956 148.251C262.129 145.732 267.81 147.203 270.983 152.921C277.397 164.478 257.352 180.919 247.179 172.445C237.093 164.044 240.016 151.805 252.956 148.251ZM175.822 162.709C174.842 161.123 172.482 161.589 171.417 163.579C170.283 165.699 171.384 170.913 173.086 171.481C174.366 171.905 176.761 164.229 175.822 162.709ZM150.152 111.481C150.492 108.526 149.534 108.177 145.513 109.79C142.108 111.155 143.035 114.231 146.851 114.231C149.365 114.231 149.886 113.796 150.152 111.481ZM156.837 98.731C156.012 98.731 155.337 99.406 155.337 100.231C155.337 101.056 156.012 101.731 156.837 101.731C157.662 101.731 158.337 101.056 158.337 100.231C158.337 99.4061 157.662 98.7312 156.837 98.731ZM131.337 85.6382C131.337 82.8002 129.491 81.4004 127.429 82.6743C126.501 83.2473 126.685 84.2905 128.185 86.9605C129.273 88.9003 130.316 91.46 130.5 92.6489C130.685 93.8379 131.287 94.905 131.837 95.021C133.25 95.317 133.729 90.7224 132.422 89.4155C131.825 88.8185 131.337 87.1191 131.337 85.6382ZM79.8369 36.9214C89.8819 31.2487 102.893 46.8492 95.6582 55.8921C92.2024 60.211 91.2042 63.981 91.8701 70.1997C92.5322 76.3837 92.4821 76.5638 89.0371 80.3628C76.0391 94.6997 55.1533 78.5005 64.8242 61.5825C66.3391 58.9327 67.3172 55.6452 67.3242 53.1753C67.3402 47.7053 72.4159 41.1124 79.8369 36.9214ZM120.896 78.731C120.653 78.731 120.177 79.1811 119.837 79.731C119.497 80.2809 119.695 80.7309 120.277 80.731C120.859 80.731 121.337 80.281 121.337 79.731C121.337 79.181 121.139 78.731 120.896 78.731ZM205.485 39.4898C219.631 37.0418 227.598 50.9151 220.597 65.8081C213.393 81.13 190.339 77.7861 190.091 61.3823C189.98 54.0764 199.509 40.5238 205.485 39.4898ZM51.8369 14.5542C64.4449 5.86451 75.68 19.3671 68.6241 34.731C62.385 48.3167 41.3372 43.775 41.3369 28.8423C41.3369 26.0333 47.6529 17.4382 51.8369 14.5542ZM108.212 2.17043C121.43 -6.81137 141.546 14.0924 133.237 28.1743C132.084 30.1297 130.819 31.7302 130.427 31.731C130.035 31.731 128.813 32.5703 127.713 33.5962C119.456 41.2872 107.786 35.7761 103.367 22.0991C100.152 12.1461 101.463 6.75643 108.212 2.17043Z" fill="currentColor"/>
</g>
<path id="stroke6_2032_263_ref" d="M47.4512 6.35901C47.2022 6.7051 46.8032 7.39901 46.2782 8.23988C45.8399 8.9419 45.3032 9.48596 44.7534 10.1538C44.2508 10.7644 43.7042 11.399 42.8544 12.3555C42.2522 12.966 41.9027 13.4303 41.6529 13.6903C41.5517 13.8355 41.5022 14.0077 41.4512 14.359"/>
<g id="stroke7_2032_263" data-figma-scatter-ref="stroke7_2032_263_ref" data-figma-scatter="f0.28_w0_aj180_sj0.25_r0_s0_sw5">
<path d="M103.731 283.547C110.352 281.363 112.807 281.348 116.121 283.468C130.109 292.418 124.85 308.718 107.972 308.727C90.3768 308.737 87.0606 289.046 103.731 283.547ZM139.837 35.4146C140.937 35.1787 142.512 35.114 143.337 35.271C144.162 35.4281 146.516 35.8391 148.567 36.1851C155.802 37.4051 160.179 46.6969 156.734 53.5249C152.924 61.0769 144.715 67.5811 140.859 66.1021C135.872 64.1881 137.625 69.8792 144.066 76.5152C148.306 80.8841 150.337 81.2685 150.337 77.7066C150.337 76.6574 151.622 74.3218 153.193 72.5161C154.823 70.6412 156.597 66.9201 157.324 63.8501C158.925 57.0892 160.788 55.2289 167.369 53.8169C177.32 51.6829 185.581 56.9263 183.752 64.2153C183.293 66.0423 183.901 67.6656 186.09 70.4585C196.859 84.1975 193.875 104.273 180.596 107.418C177.049 108.258 176.832 108.532 176.773 112.27C176.739 114.448 176.365 116.987 175.943 117.912C175.255 119.417 175.946 119.564 182.506 119.31C190.415 119.003 192.674 119.705 195.953 123.487C199.054 127.064 201.598 126.114 202.609 121.002C203.503 116.483 209.096 110.731 212.596 110.731C214.841 110.731 215.934 108.156 214.449 106.367C206.1 96.3056 222.234 73.6632 235.605 76.6792C241.572 78.0252 246.302 83.6302 246.367 89.4312C246.384 90.9712 247.505 94.4811 248.858 97.231C255.362 110.453 243.304 126.225 232.777 118.263C229.924 116.105 229.837 116.226 229.837 122.341C229.837 128.93 225.932 133.292 219.049 134.393C216.068 134.87 214.933 135.67 213.775 138.116C212.964 139.829 211.55 142.415 210.63 143.863C208.984 146.456 209.02 146.565 213.147 151.254C215.451 153.871 217.337 156.555 217.337 157.218C217.337 157.882 218.074 159.901 218.974 161.706C222.148 168.067 221.073 181.731 217.4 181.731C217.052 181.731 215.97 183.081 214.995 184.731C214.02 186.381 212.573 187.731 211.779 187.731C209.595 187.731 210.044 189.817 212.863 192.76C216.384 196.435 217.425 204.867 214.728 207.858C209.503 213.649 203.05 218.01 198.064 219.122C193.944 220.041 192.83 220.705 192.804 222.259C192.669 230.389 188.242 235.387 179.682 237.077C172.845 238.427 172.072 240.31 177.577 242.203C190.358 246.597 192.892 257.693 182.442 263.506C176.521 266.799 172.426 266.758 167.515 263.354C163.894 260.845 163.161 260.686 159.679 261.653C153.737 263.303 147.363 262.934 141.337 260.593C135.874 258.47 130.724 257.068 124.689 256.061C118.715 255.064 115.151 249.943 114.592 241.551C114.184 235.417 113.671 233.745 111.425 231.231C109.951 229.581 107.986 226.544 107.058 224.481C105.42 220.844 105.211 220.731 100.164 220.731C93.7935 220.731 89.0798 217.922 86.2168 212.42C83.0468 206.327 78.9427 207.336 78.8477 214.231C78.8097 216.981 78.4233 220.817 77.9883 222.755C77.2354 226.113 77.3507 226.324 80.4366 227.255C90.5004 230.29 90.3981 247.946 80.2881 252.934C55.9904 264.92 26.2411 240.473 47.875 226.298C49.556 225.196 50.1805 223.494 50.6895 218.626C51.0495 215.185 52.1298 211.262 53.0908 209.91C54.0507 208.557 55.2736 206.856 55.8086 206.127C56.5016 205.184 56.0161 204.003 54.1221 202.017C50.6273 198.355 49.3112 194.657 49.9981 190.428C50.3281 188.392 50.1033 186.705 49.4463 186.299C48.8364 185.922 48.337 184.345 48.3369 182.794C48.3369 181.244 47.6012 179.366 46.7032 178.621C43.9996 176.376 34.3369 162.856 34.3369 161.317C34.3368 160.529 32.7627 157.822 30.8389 155.302C28.915 152.781 27.3998 150.384 27.4727 149.975C28.4457 144.478 24.6467 141.425 20.4727 144.348C18.2547 145.902 11.2222 145.776 6.86624 144.104C-3.23648 140.227 -1.78745 115.126 8.56839 114.62C14.8594 114.313 23.3369 117.551 23.3369 120.261C23.3372 122.018 26.1103 124.731 27.9073 124.731C28.6933 124.731 29.3369 124.041 29.3369 123.198C29.3372 109.814 50.1851 94.3087 69.8369 93.0767C82.9305 92.2547 88.2617 93.4969 97.1895 99.4468C101.45 102.287 108.337 96.8837 108.337 90.7007C108.337 88.6598 109.172 86.4706 110.483 85.0747C112.734 82.6789 111.804 79.7313 108.796 79.731C106.403 79.731 103.556 73.5422 104.077 69.4702C105.046 61.8843 117.633 57.7673 123.289 63.1861C125.639 65.4379 126.708 65.8083 129.245 65.2515C133.054 64.4145 133.128 63.4739 129.587 60.895C121.36 54.902 128.195 37.9086 139.837 35.4146ZM227.337 203.429C239.094 199.654 252.722 207.291 252.722 217.653C252.722 228.495 231.921 239.44 223.927 232.806C221.665 230.929 220.403 232.363 221.012 236.118C222.097 242.802 213.511 254.731 207.616 254.731C194.246 254.731 188.8 246.232 194.457 234.198C198.202 226.231 204.453 223.784 213.238 226.847C217.536 228.345 217.88 227.687 215.921 221.697C213.052 212.925 216.89 206.783 227.337 203.429ZM179.7 192.695C179.049 192.044 178.051 192.413 176.774 193.779C168.37 202.768 165.063 203.713 156.506 199.571C149.746 196.298 146.45 201.459 151.961 206.689C154.209 208.822 154.482 209.744 154.038 213.682C153.54 218.098 153.664 218.344 158.682 222.967C163.836 227.716 163.837 227.716 164.351 222.867C164.987 216.872 169.522 209.969 174.077 208.066C177.094 206.805 177.337 206.359 177.337 202.046C177.337 199.092 177.95 196.711 179.013 195.536C180.117 194.315 180.352 193.347 179.7 192.695ZM13.7354 183.697C21.2304 180.362 25.9355 181.225 32.1055 187.066C40.5644 195.074 37.0287 205.612 24.6309 209.343C9.40689 213.925 -0.704596 190.124 13.7354 183.697ZM252.956 148.251C262.129 145.732 267.81 147.203 270.983 152.921C277.397 164.478 257.352 180.919 247.179 172.445C237.093 164.044 240.016 151.805 252.956 148.251ZM175.822 162.709C174.842 161.123 172.482 161.589 171.417 163.579C170.283 165.699 171.384 170.913 173.086 171.481C174.366 171.905 176.761 164.229 175.822 162.709ZM150.152 111.481C150.492 108.526 149.534 108.177 145.513 109.79C142.108 111.155 143.035 114.231 146.851 114.231C149.365 114.231 149.886 113.796 150.152 111.481ZM156.837 98.731C156.012 98.731 155.337 99.406 155.337 100.231C155.337 101.056 156.012 101.731 156.837 101.731C157.662 101.731 158.337 101.056 158.337 100.231C158.337 99.4061 157.662 98.7312 156.837 98.731ZM131.337 85.6382C131.337 82.8002 129.491 81.4004 127.429 82.6743C126.501 83.2473 126.685 84.2905 128.185 86.9605C129.273 88.9003 130.316 91.46 130.5 92.6489C130.685 93.8379 131.287 94.905 131.837 95.021C133.25 95.317 133.729 90.7224 132.422 89.4155C131.825 88.8185 131.337 87.1191 131.337 85.6382ZM79.8369 36.9214C89.8819 31.2487 102.893 46.8492 95.6582 55.8921C92.2024 60.211 91.2042 63.981 91.8701 70.1997C92.5322 76.3837 92.4821 76.5638 89.0371 80.3628C76.0391 94.6997 55.1533 78.5005 64.8242 61.5825C66.3391 58.9327 67.3172 55.6452 67.3242 53.1753C67.3402 47.7053 72.4159 41.1124 79.8369 36.9214ZM120.896 78.731C120.653 78.731 120.177 79.1811 119.837 79.731C119.497 80.2809 119.695 80.7309 120.277 80.731C120.859 80.731 121.337 80.281 121.337 79.731C121.337 79.181 121.139 78.731 120.896 78.731ZM205.485 39.4898C219.631 37.0418 227.598 50.9151 220.597 65.8081C213.393 81.13 190.339 77.7861 190.091 61.3823C189.98 54.0764 199.509 40.5238 205.485 39.4898ZM51.8369 14.5542C64.4449 5.86451 75.68 19.3671 68.6241 34.731C62.385 48.3167 41.3372 43.775 41.3369 28.8423C41.3369 26.0333 47.6529 17.4382 51.8369 14.5542ZM108.212 2.17043C121.43 -6.81137 141.546 14.0924 133.237 28.1743C132.084 30.1297 130.819 31.7302 130.427 31.731C130.035 31.731 128.813 32.5703 127.713 33.5962C119.456 41.2872 107.786 35.7761 103.367 22.0991C100.152 12.1461 101.463 6.75643 108.212 2.17043Z" fill="currentColor"/>
</g>
<path id="stroke7_2032_263_ref" d="M45.4512 39.359C45.9421 39.788 46.7055 40.43 47.4189 41.238C47.9866 41.8811 49.1124 42.4719 49.8815 43.0671C50.4934 43.5405 51.03 44.088 52.3959 45.3751C53.3222 46.2479 53.821 46.83 54.3423 47.3945C54.6419 47.6364 55.0261 47.959 55.4899 48.4147C55.737 48.6574 56.0079 48.9235 56.4512 49.359"/>
<g id="stroke8_2032_263" data-figma-scatter-ref="stroke8_2032_263_ref" data-figma-scatter="f0.28_w0_aj180_sj0.25_r0_s0_sw5">
<path d="M103.731 283.547C110.352 281.363 112.807 281.348 116.121 283.468C130.109 292.418 124.85 308.718 107.972 308.727C90.3768 308.737 87.0606 289.046 103.731 283.547ZM139.837 35.4146C140.937 35.1787 142.512 35.114 143.337 35.271C144.162 35.4281 146.516 35.8391 148.567 36.1851C155.802 37.4051 160.179 46.6969 156.734 53.5249C152.924 61.0769 144.715 67.5811 140.859 66.1021C135.872 64.1881 137.625 69.8792 144.066 76.5152C148.306 80.8841 150.337 81.2685 150.337 77.7066C150.337 76.6574 151.622 74.3218 153.193 72.5161C154.823 70.6412 156.597 66.9201 157.324 63.8501C158.925 57.0892 160.788 55.2289 167.369 53.8169C177.32 51.6829 185.581 56.9263 183.752 64.2153C183.293 66.0423 183.901 67.6656 186.09 70.4585C196.859 84.1975 193.875 104.273 180.596 107.418C177.049 108.258 176.832 108.532 176.773 112.27C176.739 114.448 176.365 116.987 175.943 117.912C175.255 119.417 175.946 119.564 182.506 119.31C190.415 119.003 192.674 119.705 195.953 123.487C199.054 127.064 201.598 126.114 202.609 121.002C203.503 116.483 209.096 110.731 212.596 110.731C214.841 110.731 215.934 108.156 214.449 106.367C206.1 96.3056 222.234 73.6632 235.605 76.6792C241.572 78.0252 246.302 83.6302 246.367 89.4312C246.384 90.9712 247.505 94.4811 248.858 97.231C255.362 110.453 243.304 126.225 232.777 118.263C229.924 116.105 229.837 116.226 229.837 122.341C229.837 128.93 225.932 133.292 219.049 134.393C216.068 134.87 214.933 135.67 213.775 138.116C212.964 139.829 211.55 142.415 210.63 143.863C208.984 146.456 209.02 146.565 213.147 151.254C215.451 153.871 217.337 156.555 217.337 157.218C217.337 157.882 218.074 159.901 218.974 161.706C222.148 168.067 221.073 181.731 217.4 181.731C217.052 181.731 215.97 183.081 214.995 184.731C214.02 186.381 212.573 187.731 211.779 187.731C209.595 187.731 210.044 189.817 212.863 192.76C216.384 196.435 217.425 204.867 214.728 207.858C209.503 213.649 203.05 218.01 198.064 219.122C193.944 220.041 192.83 220.705 192.804 222.259C192.669 230.389 188.242 235.387 179.682 237.077C172.845 238.427 172.072 240.31 177.577 242.203C190.358 246.597 192.892 257.693 182.442 263.506C176.521 266.799 172.426 266.758 167.515 263.354C163.894 260.845 163.161 260.686 159.679 261.653C153.737 263.303 147.363 262.934 141.337 260.593C135.874 258.47 130.724 257.068 124.689 256.061C118.715 255.064 115.151 249.943 114.592 241.551C114.184 235.417 113.671 233.745 111.425 231.231C109.951 229.581 107.986 226.544 107.058 224.481C105.42 220.844 105.211 220.731 100.164 220.731C93.7935 220.731 89.0798 217.922 86.2168 212.42C83.0468 206.327 78.9427 207.336 78.8477 214.231C78.8097 216.981 78.4233 220.817 77.9883 222.755C77.2354 226.113 77.3507 226.324 80.4366 227.255C90.5004 230.29 90.3981 247.946 80.2881 252.934C55.9904 264.92 26.2411 240.473 47.875 226.298C49.556 225.196 50.1805 223.494 50.6895 218.626C51.0495 215.185 52.1298 211.262 53.0908 209.91C54.0507 208.557 55.2736 206.856 55.8086 206.127C56.5016 205.184 56.0161 204.003 54.1221 202.017C50.6273 198.355 49.3112 194.657 49.9981 190.428C50.3281 188.392 50.1033 186.705 49.4463 186.299C48.8364 185.922 48.337 184.345 48.3369 182.794C48.3369 181.244 47.6012 179.366 46.7032 178.621C43.9996 176.376 34.3369 162.856 34.3369 161.317C34.3368 160.529 32.7627 157.822 30.8389 155.302C28.915 152.781 27.3998 150.384 27.4727 149.975C28.4457 144.478 24.6467 141.425 20.4727 144.348C18.2547 145.902 11.2222 145.776 6.86624 144.104C-3.23648 140.227 -1.78745 115.126 8.56839 114.62C14.8594 114.313 23.3369 117.551 23.3369 120.261C23.3372 122.018 26.1103 124.731 27.9073 124.731C28.6933 124.731 29.3369 124.041 29.3369 123.198C29.3372 109.814 50.1851 94.3087 69.8369 93.0767C82.9305 92.2547 88.2617 93.4969 97.1895 99.4468C101.45 102.287 108.337 96.8837 108.337 90.7007C108.337 88.6598 109.172 86.4706 110.483 85.0747C112.734 82.6789 111.804 79.7313 108.796 79.731C106.403 79.731 103.556 73.5422 104.077 69.4702C105.046 61.8843 117.633 57.7673 123.289 63.1861C125.639 65.4379 126.708 65.8083 129.245 65.2515C133.054 64.4145 133.128 63.4739 129.587 60.895C121.36 54.902 128.195 37.9086 139.837 35.4146ZM227.337 203.429C239.094 199.654 252.722 207.291 252.722 217.653C252.722 228.495 231.921 239.44 223.927 232.806C221.665 230.929 220.403 232.363 221.012 236.118C222.097 242.802 213.511 254.731 207.616 254.731C194.246 254.731 188.8 246.232 194.457 234.198C198.202 226.231 204.453 223.784 213.238 226.847C217.536 228.345 217.88 227.687 215.921 221.697C213.052 212.925 216.89 206.783 227.337 203.429ZM179.7 192.695C179.049 192.044 178.051 192.413 176.774 193.779C168.37 202.768 165.063 203.713 156.506 199.571C149.746 196.298 146.45 201.459 151.961 206.689C154.209 208.822 154.482 209.744 154.038 213.682C153.54 218.098 153.664 218.344 158.682 222.967C163.836 227.716 163.837 227.716 164.351 222.867C164.987 216.872 169.522 209.969 174.077 208.066C177.094 206.805 177.337 206.359 177.337 202.046C177.337 199.092 177.95 196.711 179.013 195.536C180.117 194.315 180.352 193.347 179.7 192.695ZM13.7354 183.697C21.2304 180.362 25.9355 181.225 32.1055 187.066C40.5644 195.074 37.0287 205.612 24.6309 209.343C9.40689 213.925 -0.704596 190.124 13.7354 183.697ZM252.956 148.251C262.129 145.732 267.81 147.203 270.983 152.921C277.397 164.478 257.352 180.919 247.179 172.445C237.093 164.044 240.016 151.805 252.956 148.251ZM175.822 162.709C174.842 161.123 172.482 161.589 171.417 163.579C170.283 165.699 171.384 170.913 173.086 171.481C174.366 171.905 176.761 164.229 175.822 162.709ZM150.152 111.481C150.492 108.526 149.534 108.177 145.513 109.79C142.108 111.155 143.035 114.231 146.851 114.231C149.365 114.231 149.886 113.796 150.152 111.481ZM156.837 98.731C156.012 98.731 155.337 99.406 155.337 100.231C155.337 101.056 156.012 101.731 156.837 101.731C157.662 101.731 158.337 101.056 158.337 100.231C158.337 99.4061 157.662 98.7312 156.837 98.731ZM131.337 85.6382C131.337 82.8002 129.491 81.4004 127.429 82.6743C126.501 83.2473 126.685 84.2905 128.185 86.9605C129.273 88.9003 130.316 91.46 130.5 92.6489C130.685 93.8379 131.287 94.905 131.837 95.021C133.25 95.317 133.729 90.7224 132.422 89.4155C131.825 88.8185 131.337 87.1191 131.337 85.6382ZM79.8369 36.9214C89.8819 31.2487 102.893 46.8492 95.6582 55.8921C92.2024 60.211 91.2042 63.981 91.8701 70.1997C92.5322 76.3837 92.4821 76.5638 89.0371 80.3628C76.0391 94.6997 55.1533 78.5005 64.8242 61.5825C66.3391 58.9327 67.3172 55.6452 67.3242 53.1753C67.3402 47.7053 72.4159 41.1124 79.8369 36.9214ZM120.896 78.731C120.653 78.731 120.177 79.1811 119.837 79.731C119.497 80.2809 119.695 80.7309 120.277 80.731C120.859 80.731 121.337 80.281 121.337 79.731C121.337 79.181 121.139 78.731 120.896 78.731ZM205.485 39.4898C219.631 37.0418 227.598 50.9151 220.597 65.8081C213.393 81.13 190.339 77.7861 190.091 61.3823C189.98 54.0764 199.509 40.5238 205.485 39.4898ZM51.8369 14.5542C64.4449 5.86451 75.68 19.3671 68.6241 34.731C62.385 48.3167 41.3372 43.775 41.3369 28.8423C41.3369 26.0333 47.6529 17.4382 51.8369 14.5542ZM108.212 2.17043C121.43 -6.81137 141.546 14.0924 133.237 28.1743C132.084 30.1297 130.819 31.7302 130.427 31.731C130.035 31.731 128.813 32.5703 127.713 33.5962C119.456 41.2872 107.786 35.7761 103.367 22.0991C100.152 12.1461 101.463 6.75643 108.212 2.17043Z" fill="currentColor"/>
</g>
<path id="stroke8_2032_263_ref" d="M21.4512 39.359C20.9901 39.865 20.3002 40.6519 18.54 42.3425C17.702 43.1475 16.1472 44.2024 15.0404 44.9699C14.2883 45.4914 13.6546 46.0132 12.8166 46.718C12.1983 47.238 11.4013 47.6479 10.7071 48.1852C10.0129 48.7784 9.55011 49.1727 9.26237 49.5382C9.08904 49.7362 8.86024 49.9596 8.45117 50.359"/>
</defs>
</svg>
